<svg width="653" height="274" fill="none" xmlns="http://www.w3.org/2000/svg"><path d="m2 73.752 64.342-39.14c31.925-19.419 72.014-19.419 103.94 0l12.372 7.527c31.925 19.42 72.014 19.42 103.939 0l12.373-7.526c31.925-19.42 72.014-19.42 103.939 0l12.373 7.526c31.925 19.42 72.014 19.42 103.939 0l12.372-7.526c31.925-19.42 72.015-19.42 103.94 0l12.372 7.526c31.925 19.42 72.014 19.42 103.94 0l12.372-7.526c31.925-19.42 72.014-19.42 103.939 0l12.373 7.526c31.925 19.42 72.014 19.42 103.939 0l12.373-7.526c31.923-19.42 72.013-19.42 103.943 0l12.37 7.526c31.92 19.42 72.01 19.42 103.94 0l12.37-7.526c31.93-19.42 72.01-19.42 103.94 0l12.37 7.526c31.93 19.42 72.02 19.42 103.94 0l12.37-7.526c31.93-19.42 72.02-19.42 103.94 0l12.38 7.526c31.92 19.42 72.01 19.42 103.93 0l12.38-7.526c31.92-19.42 72.01-19.42 103.94 0l12.37 7.526c31.92 19.42 72.01 19.42 103.94 0l12.37-7.526c31.93-19.42 72.02-19.42 103.94 0l12.37 7.526c31.93 19.42 72.02 19.42 103.94 0L2211.92 3M2 172.376l64.342-39.139c31.925-19.42 72.014-19.42 103.94 0l12.372 7.526c31.925 19.42 72.014 19.42 103.939 0l12.373-7.526c31.925-19.42 72.014-19.42 103.939 0l12.373 7.526c31.925 19.42 72.014 19.42 103.939 0l12.372-7.526c31.925-19.42 72.015-19.42 103.94 0l12.372 7.526c31.925 19.42 72.014 19.42 103.94 0l12.372-7.526c31.925-19.42 72.014-19.42 103.939 0l12.373 7.526c31.925 19.42 72.014 19.42 103.939 0l12.373-7.526c31.923-19.42 72.013-19.42 103.943 0l12.37 7.526c31.92 19.42 72.01 19.42 103.94 0l12.37-7.526c31.93-19.42 72.01-19.42 103.94 0l12.37 7.526c31.93 19.42 72.02 19.42 103.94 0l12.37-7.526c31.93-19.42 72.02-19.42 103.94 0l12.38 7.526c31.92 19.42 72.01 19.42 103.93 0l12.38-7.526c31.92-19.42 72.01-19.42 103.94 0l12.37 7.526c31.92 19.42 72.01 19.42 103.94 0l12.37-7.526c31.93-19.42 72.02-19.42 103.94 0l12.37 7.526c31.93 19.42 72.02 19.42 103.94 0l64.34-39.139M2 271l64.342-39.139c31.925-19.42 72.014-19.42 103.94 0l12.372 7.526c31.925 19.42 72.014 19.42 103.939 0l12.373-7.526c31.925-19.42 72.014-19.42 103.939 0l12.373 7.526c31.925 19.42 72.014 19.42 103.939 0l12.372-7.526c31.925-19.42 72.015-19.42 103.94 0l12.372 7.526c31.925 19.42 72.014 19.42 103.94 0l12.372-7.526c31.925-19.42 72.014-19.42 103.939 0l12.373 7.526c31.925 19.42 72.014 19.42 103.939 0l12.373-7.526c31.923-19.42 72.013-19.42 103.943 0l12.37 7.526c31.92 19.42 72.01 19.42 103.94 0l12.37-7.526c31.93-19.42 72.01-19.42 103.94 0l12.37 7.526c31.93 19.42 72.02 19.42 103.94 0l12.37-7.526c31.93-19.42 72.02-19.42 103.94 0l12.38 7.526c31.92 19.42 72.01 19.42 103.93 0l12.38-7.526c31.92-19.42 72.01-19.42 103.94 0l12.37 7.526c31.92 19.42 72.01 19.42 103.94 0l12.37-7.526c31.93-19.42 72.02-19.42 103.94 0l12.37 7.526c31.93 19.42 72.02 19.42 103.94 0l64.34-39.139" stroke="#DCDCDC" stroke-width="6" stroke-linejoin="round" stroke-dasharray="4 12"/></svg>