<svg width="140" height="51" fill="none" xmlns="http://www.w3.org/2000/svg"><path d="m33.065 50-.023-2.068c-.007-.845.008-1.691-.007-2.537-.008-.369.145-.515.498-.5.215.008.438 0 .652 0H139.187c.43-.007.529.07.529.5.016 1.438.016 2.868.016 4.305 0 .1-.023.2-.039.308C104.153 50 68.605 50 33.065 50zM44.426 13.907c.46.2.836.33 1.166.523 1.181.7 1.895 1.745 2.117 3.098.246 1.491.246 2.983-.26 4.436-.422 1.222-1.243 2.09-2.394 2.66-.928.46-1.902.63-2.93.622-2.762-.015-5.523 0-8.285 0-.499 0-.56-.061-.56-.546V4.02c0-.484.061-.545.56-.545 2.478 0 4.963-.016 7.441.008 1.32.015 2.616.153 3.82.8 1.473.783 2.279 2.013 2.37 3.643.062 1.076.077 2.176-.276 3.229-.352 1.06-1.012 1.845-2.017 2.345-.223.13-.445.245-.752.407zm-6.72 4.835s-.007 0 0 0c-.007.907-.007 1.815-.007 2.73 0 .292.122.46.43.453.79-.008 1.587.023 2.377-.015 1.136-.054 2.11-.47 2.532-1.6.214-.591.26-1.275.237-1.913-.06-1.723-1.242-2.799-2.96-2.791-.691 0-1.381 0-2.072-.008-.445-.008-.537.077-.537.523v2.621zm1.895-11.9h-1.496c-.284 0-.422.13-.414.423.015.5.015 1 .015 1.499 0 1-.007 1.999-.007 2.998 0 .27.015.53.39.53.883.008 1.765.047 2.647.016.875-.03 1.558-.4 1.972-1.222.368-.73.291-1.5.23-2.26-.085-1.108-1.074-2.107-2.263-1.992-.353.039-.713.008-1.074.008zM27.104 21.948c-.161.292-.322.6-.499.892-1.887 3.175-3.774 6.357-5.661 9.532-1.55 2.606-3.115 5.197-4.664 7.803-.69 1.153-1.358 2.314-2.04 3.475-.193.33-.308.346-.5.023-1.104-1.868-2.2-3.744-3.313-5.62-.99-1.675-1.995-3.336-2.977-5.012-.982-1.66-1.948-3.336-2.922-4.997a531.273 531.273 0 0 0-3.383-5.704c-.2-.33-.192-.584 0-.915 1.411-2.36 2.8-4.728 4.196-7.095.982-1.661 1.971-3.322 2.953-4.982 1.48-2.514 2.961-5.02 4.442-7.534.314-.53.614-1.06.928-1.591.176-.292.353-.292.506-.03 1.082 1.821 2.164 3.65 3.253 5.473 1.296 2.175 2.585 4.35 3.881 6.526l4.741 7.934c.292.492.598.984.89 1.476.054.1.1.208.169.346zM13.979 4.812c-.139.177-.261.3-.353.446-.537.9-1.059 1.807-1.596 2.714-1.473 2.483-2.953 4.966-4.434 7.45-1.189 2.006-2.378 4.02-3.582 6.026-.192.315-.223.584.007.884.077.1.139.216.208.323 1.373 2.322 2.753 4.643 4.127 6.965 1.38 2.337 2.761 4.666 4.142 7.003.43.723.867 1.446 1.296 2.176.154.261.3.308.468.023.039-.069.085-.13.123-.192a2612.58 2612.58 0 0 1 4.61-7.834 1919.4 1919.4 0 0 0 5.025-8.571c.084-.146.092-.415.015-.554a1409.24 1409.24 0 0 0-5.109-8.61 4313.276 4313.276 0 0 0-4.725-7.949c-.046-.092-.115-.161-.223-.3zM61.632 11.655V4.082c0-.561.039-.6.614-.6h3.222c.537 0 .606.062.606.585 0 4.136-.008 8.272 0 12.415 0 .5.046.992.069 1.492.054 1.191-.108 2.36-.522 3.467-.56 1.514-1.51 2.713-3 3.436-1.104.538-2.27.754-3.482.746-.966-.008-1.94.054-2.892-.2-1.956-.515-3.413-1.607-4.257-3.483-.483-1.084-.66-2.229-.66-3.405V4.082c0-.561.054-.615.614-.607 1.074.008 2.148.008 3.222 0 .552 0 .583.023.583.576 0 4.675-.016 9.349.007 14.03.008 1.23.276 2.422 1.051 3.429.422.546.997.86 1.688.853a5.808 5.808 0 0 0 1.503-.2c.829-.238 1.29-.868 1.427-1.69.115-.677.2-1.37.207-2.053.023-2.253.008-4.505 0-6.766zM83.633 19.311v4.92c0 .53-.046.546-.56.677a24.028 24.028 0 0 1-4.61.745c-1.764.108-3.536.1-5.224-.522-1.465-.546-2.455-1.56-2.984-3.075a22.435 22.435 0 0 1-1.228-7.073c-.03-2.314.223-4.597.637-6.873.384-2.114 1.603-3.551 3.575-4.297 2.324-.876 4.702-.869 7.004.054 1.641.661 2.723 1.937 3.13 3.69.168.723.183 1.491.252 2.237.031.323-.1.477-.467.469a132.286 132.286 0 0 0-3.49-.008c-.622 0-.684-.054-.576-.653.123-.707.008-1.369-.253-2.022-.307-.784-.974-1.053-1.703-1.207-1.396-.308-2.286.461-2.908 1.645-.444.853-.444 1.791-.49 2.698-.093 1.876-.162 3.76-.13 5.643.022 1.407.122 2.821.567 4.174.575 1.715 1.933 2.245 3.544 1.968.46-.076.913-.245 1.358-.384.299-.092.452-.292.445-.63a200.608 200.608 0 0 1-.008-3.729c0-.5-.07-.576-.575-.569-.514 0-1.02-.007-1.535.016-.284.008-.399-.108-.399-.377v-2.652c0-.261.123-.354.384-.354 1.94.008 3.89.008 5.83 0 .345 0 .407.17.407.454-.008 1.245 0 2.483 0 3.728.007.408.007.861.007 1.307zM94.979 3.483c.782 0 1.557.015 2.34-.008.375-.008.56.146.66.492.329 1.207.674 2.414 1.02 3.62.536 1.869 1.081 3.737 1.61 5.605.522 1.845 1.021 3.698 1.55 5.543.537 1.89 1.097 3.782 1.649 5.673.238.83.23.838-.621.838-1.112 0-2.225-.015-3.337.008-.407.007-.583-.108-.675-.53-.3-1.338-.652-2.66-.967-3.99-.069-.293-.222-.385-.514-.385-1.818.015-3.628.008-5.446.008-.43 0-.568.107-.668.523-.306 1.291-.629 2.582-.935 3.882-.07.3-.23.43-.537.423-1.166-.008-2.325 0-3.49-.008-.407 0-.453-.092-.346-.5.353-1.299.698-2.598 1.051-3.89.307-1.091.63-2.183.936-3.282.337-1.223.667-2.445.997-3.667.537-1.96 1.082-3.921 1.626-5.881.376-1.353.767-2.706 1.143-4.067.085-.315.246-.43.568-.423.798.03 1.596.016 2.386.016zm.015 4.643c-.054.008-.107.023-.153.03-.031.093-.077.185-.1.277-.13.57-.253 1.146-.391 1.722l-1.588 6.32c-.13.53-.061.622.468.622h3.298c.376 0 .476-.123.392-.492-.093-.4-.184-.8-.269-1.199-.468-2.23-.936-4.451-1.411-6.68-.054-.208-.17-.4-.246-.6zM123.668 16.206V7.748c0-.484-.076-.561-.552-.561-1.358 0-2.708.008-4.066.008-.445 0-.537-.093-.537-.538V4.005c0-.438.085-.522.514-.522 4.588 0 9.175 0 13.762-.008.338 0 .491.138.484.484a159.57 159.57 0 0 0 0 2.768c0 .338-.146.484-.484.484-1.327-.015-2.662-.015-3.989-.015-.537 0-.606.069-.606.592v16.874c0 .523-.076.6-.598.6-1.135 0-2.278-.008-3.414 0-.468 0-.537-.054-.537-.516v-5.42c.016-1.053.016-2.083.023-3.12zM111.993 16.213v8.456c0 .508-.061.577-.568.577h-3.413c-.461 0-.545-.077-.545-.538 0-5.612 0-11.224.008-16.836 0-.646-.039-.692-.698-.684-1.304.008-2.608.008-3.913.008-.437 0-.514-.077-.514-.515 0-.9.008-1.792 0-2.691-.007-.346.108-.515.484-.515 4.579.008 9.151 0 13.731 0 .322 0 .468.138.468.461-.008.923 0 1.845 0 2.768 0 .392-.115.492-.506.492-1.304 0-2.609 0-3.913-.008-.575 0-.613.038-.613.6-.008 2.813-.008 5.62-.008 8.425zM135.459 14.322V4.067c0-.515.077-.584.606-.584h3.414c.437 0 .521.076.521.515v20.748c0 .43-.076.508-.521.508h-3.414c-.522 0-.606-.07-.606-.592v-10.34zM96.85 36.247c.008-.13.031-.27.031-.4-.007-1.637-.007-3.282-.023-4.92 0-.346.146-.492.491-.476.269.007.537 0 .806 0 .437.007.513.084.513.515v8.11c0 .446-.076.523-.506.53-.33.008-.667-.015-.997.008-.315.016-.514-.13-.652-.384-.974-1.753-1.949-3.513-2.93-5.258-.07-.116-.2-.193-.307-.293-.039.139-.115.27-.115.408-.008 1.637 0 3.282 0 4.92 0 .515-.085.6-.599.6-.284 0-.56-.008-.843.007-.3.016-.422-.13-.422-.407V30.98c0-.469.053-.523.529-.523.253 0 .514.031.767-.007.583-.093.905.169 1.174.668.867 1.638 1.78 3.252 2.67 4.874.068.131.137.27.206.4.062-.046.138-.1.207-.146zM119.388 35.032v-4.036c0-.484.077-.553.552-.545 1.32.007 2.631-.031 3.951.015.506.015 1.058.115 1.511.33 1.059.5 1.55 1.707 1.281 2.852-.123.539-.345 1.015-.821 1.338-.184.13-.283.3-.046.461.545.37.622.946.66 1.523.038.522.023 1.053.077 1.568.023.238.13.469.23.692.1.23.031.361-.2.369-.498.015-.997.015-1.495-.008-.315-.015-.438-.246-.461-.523a40.95 40.95 0 0 1-.061-1.652c-.008-.977-.376-1.354-1.343-1.361-.498 0-.997-.008-1.495 0-.461 0-.522.069-.522.538 0 .822.008 1.637.008 2.46 0 .461-.077.538-.53.538h-.767c-.452 0-.529-.077-.529-.538v-4.02zm3.237-.553c.307 0 .621.054.913-.016.338-.069.698-.184.967-.392.368-.284.398-.73.268-1.16-.138-.477-.491-.77-.974-.808a25.33 25.33 0 0 0-2.294-.038c-.1 0-.284.192-.284.307-.03.577-.015 1.154-.015 1.722 0 .27.153.385.414.385h1.005zM63.98 35.025c.053-1.084.207-2.13.813-3.052.629-.946 1.542-1.46 2.639-1.676 1.296-.254 2.485-.016 3.567.73.813.561 1.258 1.376 1.48 2.306a7.074 7.074 0 0 1 .016 3.352c-.323 1.33-1.067 2.33-2.394 2.83-1.687.63-3.26.445-4.68-.693-.651-.522-1.012-1.253-1.196-2.052-.122-.57-.169-1.161-.245-1.745zm1.933.215c.092.377.176.984.383 1.553.323.876 1.028 1.345 1.941 1.391.928.054 1.68-.353 2.087-1.214.621-1.315.621-2.645-.046-3.944-.645-1.246-2.37-1.576-3.452-.523-.721.692-.829 1.584-.913 2.737zM77.412 39.883c-1.09-.038-2.11-.215-2.946-1-.506-.476-.713-1.083-.82-1.737-.04-.238.099-.36.33-.369.398-.007.797-.03 1.188.008.138.015.353.162.384.292.215.861.867 1.123 1.61 1.161.469.023.96-.1 1.412-.254a.909.909 0 0 0 .645-.876c-.008-.423-.307-.707-.69-.83-.63-.2-1.282-.33-1.911-.538-.66-.216-1.396-.354-1.949-.746-1.48-1.046-1.073-3.69.614-4.405 1.297-.546 2.616-.561 3.897.023.882.4 1.396 1.138 1.55 2.099.069.415-.031.507-.445.515-.138 0-.284-.016-.422 0-.568.077-.951-.046-1.181-.661-.108-.285-.537-.485-.86-.638-.583-.27-1.565-.062-1.94.338-.5.538-.338 1.245.368 1.453.744.223 1.511.376 2.255.6.522.153 1.051.322 1.534.568.568.285.883.8.982 1.43.276 1.853-.706 3.098-2.516 3.421-.353.077-.729.1-1.09.146zM135.405 30.443h.499c.583-.008.659.077.844.615.46 1.353.943 2.698 1.403 4.051.422 1.23.844 2.468 1.243 3.706.246.768.223.768-.598.776-1.611.015-1.151.046-1.627-1.3-.184-.53-.161-.56-.728-.56-.729 0-1.458.007-2.187-.008-.337-.008-.56.077-.644.438-.077.323-.215.63-.307.953-.092.331-.284.492-.636.485a17.88 17.88 0 0 0-1.113 0c-.322.007-.422-.131-.314-.43.483-1.377.974-2.745 1.45-4.121.437-1.253.859-2.514 1.296-3.775.069-.207.138-.415.261-.592a.544.544 0 0 1 .353-.223c.268-.03.537-.007.805-.015 0 .008 0 0 0 0zm-.046 5.689c.246 0 .483.007.729 0 .238-.008.353-.131.276-.385-.161-.515-.322-1.022-.476-1.537-.099-.33-.176-.67-.291-.992-.038-.1-.169-.17-.269-.23-.015-.008-.13.076-.145.138-.269.876-.537 1.76-.798 2.644-.069.223.061.346.276.354.238.015.468.008.698.008zM89.195 39.606c-1.082 0-1.082 0-1.335-1.068-.023-.1-.054-.2-.077-.3-.1-.369-.3-.538-.713-.515-.737.038-1.48.023-2.225 0-.322-.008-.506.123-.606.415-.115.338-.246.677-.33 1.023-.077.307-.253.43-.537.438-.399.007-.79.007-1.189 0-.345-.008-.437-.139-.322-.47a720.26 720.26 0 0 1 1.327-3.758c.522-1.484 1.043-2.968 1.55-4.452.122-.353.314-.522.705-.484.392.03.79.03 1.19 0 .375-.023.56.154.674.485.683 2.021 1.366 4.043 2.064 6.065.238.7.514 1.384.752 2.083.145.43.053.538-.384.538h-.544zm-3.138-6.75c-.084.07-.146.093-.161.131-.307.938-.621 1.868-.905 2.806-.07.231.092.346.33.346.406-.007.82 0 1.227-.007.407-.008.499-.139.376-.53-.192-.608-.368-1.223-.56-1.838-.085-.285-.192-.577-.307-.907zM45.094 30.443c1.089 0 1.104 0 1.465 1.015.53 1.506 1.028 3.029 1.542 4.535.36 1.038.736 2.068 1.097 3.106.138.392.046.507-.376.507-.368 0-.744-.007-1.113 0-.322.008-.521-.123-.59-.468-.07-.346-.207-.685-.307-1.03-.084-.27-.253-.385-.545-.385-.82.008-1.634.008-2.454 0-.238 0-.384.084-.46.315-.139.415-.292.815-.43 1.23-.077.23-.215.33-.453.323-.368-.008-.744 0-1.112 0-.453 0-.552-.138-.407-.569.292-.815.59-1.63.875-2.452.468-1.33.92-2.652 1.38-3.982.192-.546.4-1.077.576-1.622.123-.385.33-.585.76-.53.191.03.375.007.552.007zm.03 2.452c-.046.008-.092.016-.145.023-.3.953-.614 1.907-.898 2.868-.069.23.084.353.33.353.445 0 .89.008 1.342.008.3 0 .376-.17.292-.438-.215-.723-.43-1.445-.652-2.16-.077-.223-.184-.439-.269-.654zM113.965 30.443c1.135 0 1.12.008 1.488 1.1a962.557 962.557 0 0 0 2.071 6.057c.176.523.376 1.03.552 1.553.115.33.016.453-.33.461-.406.008-.82 0-1.227 0-.291 0-.46-.138-.529-.446-.077-.361-.215-.707-.315-1.06-.076-.262-.245-.37-.514-.37-.828.008-1.664-.015-2.493.016a.598.598 0 0 0-.422.284 9.208 9.208 0 0 0-.437 1.184c-.092.3-.268.4-.568.392-.329-.015-.667 0-.997-.008-.498 0-.583-.138-.414-.614.407-1.146.821-2.284 1.22-3.43.529-1.506 1.051-3.013 1.58-4.52.192-.553.261-.6.859-.591.169 0 .322-.008.476-.008zm-.008 2.452c-.038 0-.077.008-.115.008-.069.223-.138.446-.215.661-.222.692-.452 1.384-.66 2.076-.107.353-.007.484.346.492.422.007.843.007 1.258.007.291 0 .399-.146.322-.415-.223-.76-.445-1.514-.683-2.268-.054-.192-.161-.376-.253-.56zM37.407 37.023c.123-.222.246-.369.292-.538.437-1.576.859-3.16 1.28-4.735.085-.323.177-.638.277-.953.077-.262.276-.354.53-.354.36 0 .713 0 1.073.008.407.007.499.1.376.484-.33 1.038-.675 2.06-1.02 3.09-.568 1.7-1.143 3.39-1.695 5.09-.123.368-.323.515-.699.491-.306-.015-.62.047-.912-.015-.192-.038-.46-.184-.514-.354-.407-1.114-.767-2.244-1.143-3.374a841.51 841.51 0 0 0-1.343-4.082c-.107-.316-.238-.623-.33-.938-.069-.239 0-.408.292-.408.46 0 .92-.015 1.38-.007.33.007.4.3.469.538.214.745.414 1.499.621 2.252.315 1.184.629 2.376.951 3.56-.008.069.039.115.115.245zM60.121 36.877c.123-.422.246-.853.36-1.276.423-1.53.837-3.06 1.267-4.59.138-.499.253-.568.751-.56.346.007.69 0 1.036 0 .292 0 .391.123.292.415-.553 1.637-1.09 3.275-1.634 4.912a587.93 587.93 0 0 1-1.143 3.375c-.115.33-.315.5-.69.461a5.648 5.648 0 0 0-.883 0c-.314.016-.499-.138-.598-.43-.384-1.177-.767-2.36-1.159-3.537-.452-1.368-.913-2.744-1.365-4.112-.084-.247-.169-.485-.246-.73-.069-.216-.007-.354.246-.362.46 0 .92-.008 1.38 0 .27 0 .415.161.484.407l1.243 4.636c.092.346.176.692.291 1.03.046.138.154.261.238.392.046-.008.084-.023.13-.03zM105.81 35.847v-3.19c0-.515-.061-.569-.575-.569-.552 0-1.097 0-1.649.008-.338.007-.499-.123-.476-.477.015-.269-.008-.538.008-.807.015-.262.153-.385.422-.385 2.132.008 4.272.016 6.405.016.361 0 .522.154.506.507-.007.23-.015.462 0 .692.023.338-.145.461-.46.461-.56-.007-1.128-.007-1.688-.007-.498 0-.583.077-.583.576v6.304c0 .561-.069.638-.644.63h-.767c-.422-.007-.506-.092-.506-.53 0-1.076 0-2.153.007-3.229-.007 0-.007 0 0 0zM50.532 35.01v-3.998c0-.523.062-.577.56-.57.284.009.56 0 .844 0 .392.009.499.116.499.508-.008 2.084-.008 4.175-.015 6.258 0 .707.03.738.728.73h3.222c.445 0 .514.07.499.515 0 .154-.008.308 0 .462.007.638-.039.684-.652.684h-5.132c-.476 0-.545-.07-.545-.561-.008-1.338-.008-2.683-.008-4.029zM128.202 35.017V30.98c0-.446.085-.538.537-.538.284 0 .56 0 .844-.008.406-.008.514.085.522.515v8.103c0 .461-.092.553-.568.546h-.767c-.491 0-.568-.085-.568-.592v-3.99zM102.144 35.01v4.074c0 .461-.07.53-.53.522-.291-.007-.59-.007-.882 0-.33.008-.499-.13-.499-.476v-8.226c0-.323.154-.461.468-.461.361 0 .714-.008 1.074-.016.368-.007.361.262.361.508 0 .784 0 1.56-.008 2.345.008.576.008 1.153.016 1.73-.008 0 0 0 0 0z" fill="#24242E"/><path d="M10.006 17.574c.384 0 .767-.03 1.15.015.17.016.4.146.469.285.391.83.752 1.683 1.112 2.529.307.715.598 1.438.905 2.152a.44.44 0 0 0 .269.216c.053.015.168-.123.215-.216.705-1.514 1.411-3.036 2.117-4.55.138-.293.345-.447.698-.439.652.023 1.304.008 1.956.008.43 0 .545.154.376.546-.414.991-.844 1.968-1.258 2.96l-2.44 5.88c-.46 1.123-.92 2.245-1.396 3.36-.03.07-.115.123-.176.184-.077-.077-.184-.138-.223-.23-.337-.769-.675-1.545-1.005-2.322-.836-1.968-1.664-3.936-2.5-5.896-.568-1.338-1.151-2.675-1.726-4.013-.138-.323-.031-.47.337-.47h1.12z" fill="#24242E"/></svg>