<svg width="92" height="48" fill="none" xmlns="http://www.w3.org/2000/svg"><path d="M92 .008c-.257 1.142-.499 2.24-.748 3.344-.778 3.427-1.557 6.847-2.328 10.275-1.08 4.774-2.16 9.54-3.234 14.315-.68 3.011-1.36 6.023-2.025 9.034-.068.318-.19.394-.5.394-8.448-.008-16.904-.008-25.353-.008-18.78 0-37.559 0-56.338.008H.937c.129-.59.235-1.128.355-1.665.938-4.161 1.875-8.323 2.804-12.477.9-4.01 1.806-8.028 2.706-12.038C7.61 7.604 8.419 4.025 9.212.44 9.28.129 9.386 0 9.75 0 37.015.008 64.28.008 91.554.008H92zM34.211 1.846c-2.531 11.228-5.056 22.434-7.595 33.692h15.107c4.194 0 8.388 0 12.582.008.257 0 .409-.03.477-.325.876-3.98 1.768-7.952 2.66-11.925 1.42-6.302 2.849-12.605 4.277-18.915.189-.832.37-1.665.56-2.527-9.38-.008-18.705-.008-28.068-.008zm-1.851-.023H11.427c-.136 0-.28.016-.416 0-.204-.015-.287.076-.325.273-.068.37-.166.734-.25 1.104-.99 4.396-1.987 8.785-2.977 13.18L3.696 33.096c-.182.794-.356 1.589-.537 2.42h21.606c2.524-11.212 5.048-22.418 7.595-33.692zm49.665 33.678c2.524-11.236 5.033-22.427 7.557-33.662H64.077A162252.26 162252.26 0 0 1 56.52 35.5h25.505zM29.208 43.642c-.264.476-.529.953-.786 1.437-.445.833-.884 1.665-1.345 2.49a.6.6 0 0 1-.393.264c-.914.076-.922.061-1.02-.847a845.605 845.605 0 0 1-.484-4.35c-.007-.046.008-.099.008-.205.28 0 .552-.015.824.008.068.007.166.144.173.227.106 1.15.205 2.308.31 3.458.015.15.046.31.144.469.408-.765.816-1.521 1.224-2.285.287-.53.574-1.06.839-1.604.113-.227.257-.296.499-.296.838.008.854-.007.937.818.106 1.036.189 2.08.28 3.124.007.084.022.167.045.371l.71-1.339c.43-.825.87-1.65 1.27-2.49.166-.355.362-.544.77-.476.167.03.348.008.605.008-.317.59-.597 1.104-.877 1.619-.604 1.105-1.201 2.21-1.806 3.314-.234.439-.869.68-1.322.469-.068-.03-.113-.174-.121-.273-.129-1.203-.25-2.405-.37-3.608-.008-.091-.023-.19-.03-.28l-.084-.023zM70.712 45.526c0-1.476.672-2.558 1.927-3.034a3.002 3.002 0 0 1 2.04-.06c.907.294 1.406.953 1.474 1.898.106 1.294-.22 2.444-1.368 3.186-.9.582-1.882.605-2.857.204-.838-.348-1.216-1.082-1.216-2.194zm4.39-.689c0-.84-.325-1.415-.861-1.626-.567-.227-1.262-.046-1.753.476-.53.568-.726 1.264-.718 2.013.007.598.211 1.127.83 1.354.636.235 1.195.046 1.663-.4.567-.523.794-1.189.84-1.817zM18.492 45.33c0-2.014 1.693-3.42 3.764-2.952.96.22 1.572.9 1.67 1.9.113 1.157-.136 2.209-1.043 3.01-.839.742-2.32.909-3.295.38-.854-.462-1.11-1.242-1.096-2.339zm4.399-.614c-.038-.635-.204-1.203-.847-1.483-.567-.25-1.27-.068-1.753.44-.544.567-.748 1.278-.733 2.042.007.575.204 1.105.808 1.332.643.242 1.217.075 1.7-.394.545-.53.78-1.195.825-1.937zM47.821 45.904c.008-2.603 1.761-4.018 3.847-3.51.68.166 1.164.575 1.436 1.225.506 1.21.06 2.989-.998 3.76-.937.69-1.98.78-3.038.349-.975-.394-1.24-1.241-1.247-1.824zm4.391-1.158c.015-1.029-.612-1.702-1.504-1.611a1.698 1.698 0 0 0-1.24.711 2.88 2.88 0 0 0-.536 2.18c.113.809.877 1.293 1.67 1.081.915-.25 1.595-1.248 1.61-2.36zM37.8 45.405c-.196 1.044.34 1.725 1.406 1.725.552 0 1.111-.136 1.685-.212-.007-.015.023.023.016.053-.19.923.053.757-.953.923-.37.06-.755.076-1.126.06-1.262-.068-1.957-.726-2.123-1.974-.212-1.566.695-3.148 2.078-3.541a3.332 3.332 0 0 1 1.338-.091c1.103.166 1.677 1.082 1.541 2.346-.068.673-.068.673-.74.673-.998 0-1.988 0-2.985.008-.046.007-.083.022-.136.03zm2.804-.825c.106-.749-.105-1.188-.604-1.377-.877-.333-1.95.424-2.033 1.377h2.637zM80.816 47.841c.211-1.021.408-1.967.597-2.913.053-.242.106-.492.113-.741.023-.757-.506-1.196-1.254-1.03-.749.16-1.217.682-1.444 1.363-.25.733-.385 1.505-.567 2.262-.03.12-.052.25-.075.37-.159.772-.272.84-1.141.636l.362-1.793c.22-1.082.439-2.164.65-3.253.046-.227.129-.333.37-.318.197.015.394 0 .628 0-.038.257-.068.454-.083.582.4-.204.816-.507 1.27-.62.407-.098.883-.053 1.292.06.74.197 1.148.954 1.005 1.847-.182 1.112-.431 2.217-.665 3.329-.015.09-.151.204-.242.212-.242.03-.499.007-.816.007zM62.898 42.424c-.265 1.294-.514 2.527-.764 3.753-.09.43-.203.855-.256 1.293-.038.318-.167.409-.461.371-.16-.023-.325 0-.53 0 .03-.25.053-.454.084-.734-.567.659-1.224.916-2.018.855-1.043-.076-1.73-.862-1.572-1.891.181-1.143.423-2.27.658-3.405.022-.098.166-.22.264-.235.234-.037.469-.007.786-.007-.106.537-.196 1.021-.295 1.505-.128.628-.264 1.256-.385 1.884-.189.976.46 1.559 1.398 1.256.861-.28 1.24-.998 1.45-1.793a23 23 0 0 0 .507-2.36c.068-.394.212-.553.605-.492.159.022.31 0 .529 0zM.008 43.944c0-.643-.015-1.157.015-1.672.007-.106.143-.227.25-.295 2.599-1.702 6.287-1.483 8.675.507 1.48 1.233 2.47 2.762 2.713 4.721-.733-2.511-2.252-4.29-4.822-4.963-2.509-.658-4.829-.302-6.831 1.703zM12.855 43.271H11.6c.038-.242.038-.446.106-.62.038-.099.174-.205.272-.212.34-.023.68-.008 1.05-.008.099-.363.182-.71.28-1.051.446-1.559 1.784-1.839 2.773-1.446-.06.235-.113.47-.173.704-1.27-.015-1.806.515-1.769 1.8h1.345c-.045.258-.06.47-.12.667-.023.075-.152.159-.242.159-.287.022-.582.03-.87.007-.279-.023-.392.083-.453.356-.264 1.263-.559 2.527-.808 3.798-.068.37-.22.484-.567.439-.159-.023-.318 0-.544 0 .325-1.559.642-3.05.975-4.593zM47.874 42.424a673.541 673.541 0 0 0-1.95 3.427c-.325.568-.657 1.128-.967 1.71-.12.22-.257.295-.506.288-.824-.015-.839 0-.968-.825a782.848 782.848 0 0 1-.717-4.6c.317 0 .604-.023.884.015.083.007.196.166.211.272.167 1.21.31 2.414.469 3.625.015.105.045.204.09.4l1.225-2.216c.325-.583.657-1.158.96-1.756.136-.265.294-.378.582-.34.196.022.4 0 .687 0zM64.96 43.264h-1.117c0-.122-.008-.197 0-.265.06-.568.06-.568.627-.575.68 0 .68 0 .808-.643.144-.681.235-.757 1.202-.923-.098.514-.197 1.013-.31 1.566h1.451c-.045.265-.053.484-.128.673-.03.076-.182.151-.288.151-.325.023-.657-.015-.982.023-.106.008-.264.144-.287.242a83.112 83.112 0 0 0-.567 2.732c-.136.696.174.998.877.893.136-.023.272-.053.4-.076.106.704-.03.878-.703.908-.136.007-.28.007-.415.007-.817-.022-1.33-.628-1.194-1.437.158-.93.347-1.854.529-2.777.037-.159.06-.303.098-.5zM54.215 47.849c.12-.568.226-1.082.332-1.597.423-1.99.847-3.98 1.255-5.977.06-.303.166-.439.483-.393.182.022.37.007.612.007-.143.681-.272 1.317-.408 1.952-.393 1.846-.793 3.685-1.163 5.531-.076.393-.235.545-.62.484-.136-.023-.287-.007-.491-.007zM15.485 47.826c.566-2.663 1.118-5.281 1.677-7.922h1.005c-.158.78-.317 1.536-.476 2.293-.363 1.71-.748 3.412-1.08 5.13-.084.43-.242.582-.65.522-.144-.023-.295-.015-.476-.023zM69.858 42.424c-.234 1.127-.461 2.194-.68 3.26-.121.576-.265 1.15-.363 1.733-.053.318-.174.47-.506.424-.182-.023-.37-.007-.597-.007.211-1.03.415-1.998.62-2.966.143-.674.302-1.347.422-2.028.053-.318.167-.477.507-.424.181.03.363.008.597.008zM70.41 40.108c-.069.349-.114.644-.19.931-.022.076-.143.182-.219.182-.294.022-.597.007-.944.007.068-.348.113-.666.196-.976.015-.068.136-.144.212-.144.294-.007.597 0 .944 0z" fill="#24242E"/><path d="M27.515 34.305c.552-.953 1.058-1.854 1.572-2.739 1.315-2.293 2.638-4.577 3.96-6.862l6.37-11.055c1.966-3.412 3.938-6.824 5.895-10.237.144-.25.295-.355.59-.348 1.322.015 2.645.008 3.967.008h.416c1.383 10.41 2.766 20.792 4.156 31.195-.113.015-.196.03-.287.03-1.262 0-2.516 0-3.778.008-.257 0-.34-.076-.37-.333-.31-2.474-.65-4.94-.96-7.415-.03-.234-.121-.287-.333-.287-3.93 0-7.86.007-11.789-.008-.264 0-.4.106-.529.325-1.42 2.475-2.857 4.949-4.277 7.43-.136.235-.28.333-.56.326-1.194-.015-2.395-.008-3.59-.008-.12-.007-.249-.022-.453-.03zm20.888-12.492c-.574-4.343-1.148-8.648-1.715-12.953a1.241 1.241 0 0 1-.083-.023c-2.48 4.305-4.958 8.61-7.467 12.976h9.265zM12.893 17.485h14.07c-.226 1-.438 1.953-.657 2.906-.075.333-.173.658-.211.999-.046.37-.197.484-.582.484-4.081-.015-8.162-.008-12.243-.008-.317 0-.634.03-.944-.007-.378-.046-.492.113-.567.454-.673 3.049-1.368 6.09-2.056 9.132-.196.87-.385 1.74-.604 2.61-.03.106-.174.265-.265.265-1.345.016-2.697.008-4.043 0-.022 0-.045-.022-.113-.053.174-.756.34-1.52.514-2.292 1.035-4.563 2.063-9.125 3.098-13.688 1.111-4.917 2.23-9.836 3.325-14.754.068-.317.167-.454.53-.454 6.136.023 12.265.023 18.4.03h.318c-.332 1.453-.665 2.86-.997 4.313h-.461c-4.595 0-9.197.008-13.792-.007-.37 0-.514.098-.597.469-.68 3.11-1.39 6.212-2.093 9.314-.008.083-.015.166-.03.287zM58.023 34.267c.31-1.354.605-2.693.907-4.025.953-4.222 1.912-8.436 2.872-12.658 1.08-4.76 2.161-9.518 3.227-14.278.06-.28.174-.332.423-.332 3.779.007 7.557-.038 11.336.022 1.685.023 3.378.273 4.912 1.037C83.86 5.115 85.184 6.9 85.735 9.26c.854 3.67-.446 6.605-3.106 9.05-1.753 1.61-3.786 2.73-6.113 3.283-.378.09-.764.136-1.194.212 1.775 4.154 3.551 8.285 5.35 12.484-.197.008-.34.023-.484.023-1.133 0-2.267-.015-3.4.007-.37.008-.552-.098-.696-.446-1.624-3.836-3.28-7.657-4.912-11.493-.166-.386-.34-.545-.786-.537-1.587.037-3.174.015-4.76.015h-.424c-.468 2.065-.922 4.1-1.383 6.136-.453 1.997-.899 4.002-1.345 6-.045.197-.09.318-.325.318-1.3-.008-2.592-.008-3.892-.008-.075.008-.143-.015-.242-.038zm8.306-16.82h.514c2.644 0 5.29-.014 7.934.008 1.557.015 2.933-.423 4.172-1.37 1.315-1.006 2.35-2.14 2.479-3.903.12-1.695-.461-3.042-1.852-4.003-.876-.605-1.897-.787-2.947-.787-2.554-.015-5.116-.007-7.67-.015-.25 0-.34.083-.401.325-.484 2.172-.99 4.343-1.489 6.507a338.307 338.307 0 0 1-.74 3.239z" fill="#24242E"/></svg>