<svg width="159" height="44" fill="none" xmlns="http://www.w3.org/2000/svg"><path fill-rule="evenodd" clip-rule="evenodd" d="M136.805 0H22.195C9.923 0 0 9.823 0 21.812 0 33.88 9.923 43.624 22.195 43.624h114.61c12.196 0 22.195-9.823 22.195-21.812S149.001 0 136.805 0zm0 40.763H22.195c-10.605 0-19.24-8.509-19.24-18.95 0-10.443 8.635-18.951 19.24-18.951h114.61c10.605 0 19.241 8.508 19.241 18.95s-8.636 18.95-19.241 18.95z" fill="#24242E"/><path fill-rule="evenodd" clip-rule="evenodd" d="M131.2 16.785c-1.591 0-2.954 3.093-2.954 8.198 0 1.547.454 2.244 1.363 2.244 1.667 0 2.954-2.862 2.954-7.813.076-1.779-.303-2.63-1.363-2.63z" fill="#24242E"/><path fill-rule="evenodd" clip-rule="evenodd" d="M136.805 5.337H22.195c-9.242 0-16.74 7.425-16.74 16.475 0 9.127 7.498 16.475 16.74 16.475h114.61c9.242 0 16.741-7.425 16.741-16.475s-7.499-16.475-16.741-16.475zM22.195 33.492c-6.515 0-11.817-5.26-11.817-11.68s5.302-11.68 11.817-11.68c6.514 0 11.817 5.26 11.817 11.68s-5.303 11.68-11.817 11.68zm35.072-17.094c-.53.232-.757.077-.909.696a52.71 52.71 0 0 0-.833 5.182c-.303 2.32-.379 3.713-.379 4.1 0 .541.076.773.38 1.005.378.232.832.31.832.928 0 1.238-1.439 1.702-4.469 1.702-2.348 0-3.484-.464-3.484-1.392 0-.62.303-.851.909-1.083.53-.232.606-.464.757-1.934l.152-.928c.075-.31.075-.464.075-.696 0-.619-.303-.696-1.212-.696H47.95c-.833 0-.833.077-.985 1.083l-.076 1.16c-.075.619-.075 1.16-.075 1.624 0 .541.227.464.454.619.303.155.455.387.455.773 0 1.16-1.364 1.625-4.09 1.625-2.5 0-3.713-.387-3.713-1.47 0-.464.228-.773.455-.928.379-.232.833-.31.909-.696.151-.464.455-2.089.833-4.796.379-2.862.455-4.409.455-4.64 0-.465-.076-.542-.53-.697-.455-.232-.682-.541-.682-1.005 0-1.16 1.439-1.625 4.393-1.625 2.349 0 3.485.387 3.485 1.47 0 .541-.303.696-.758.928-.606.31-.606.619-.757 1.702l-.152 1.083c-.075.386-.075.618-.075.773 0 .387.378.387 1.363.387h.606c1.364 0 1.364-.078 1.515-1.238l.152-1.005c.075-.464.075-.774.075-.928 0-.387-.151-.465-.454-.697-.379-.232-.606-.464-.606-.928 0-1.16 1.363-1.547 4.166-1.547 2.348 0 3.485.31 3.485 1.393-.152.232-.303.618-.53.696zm12.802 4.177c.682 0 1.06-.155 1.212-.62.303-.773.303-1.469 1.136-1.469.91 0 1.364.928 1.364 2.63 0 2.552-.758 4.1-1.894 4.1-.757 0-.909-.31-.909-1.006-.076-1.083-.076-1.315-1.212-1.315-.833 0-.757.155-.833 1.006v2.475c0 .541.227.696.985.696h1.061c1.363 0 1.893-.155 2.65-1.238.606-.928.91-1.547 1.591-1.547.682 0 1.288.696 1.288 1.78 0 2.088-1.288 4.021-2.348 4.021-.303 0-1.06-.309-2.652-.309-4.317 0-7.044.232-8.105.232-1.212 0-1.818-.541-1.818-1.392 0-1.16 1.288-1.238 1.667-1.78.227-.309.454-1.391.757-3.325.606-3.326.682-5.415.682-5.956 0-.619-.076-.773-.455-1.006-.378-.232-.757-.309-.757-.928 0-1.237.682-1.624 2.197-1.624 1.06 0 2.727.155 5 .155 1.514 0 2.499 0 2.953-.078.455-.077.834-.232 1.137-.232.833 0 1.97 1.47 1.97 3.326 0 1.083-.531 1.78-1.289 1.78-.909 0-1.06-.929-1.515-1.625-.227-.387-.984-.619-2.348-.619-1.06 0-1.59.078-1.742.464-.227.542-.379 1.78-.379 2.63-.076.696.076.774.606.774zm28.18-3.945c-.304.077-.531.155-.607.387-.075.232-.303 1.16-.53 2.552-.454 3.171-.682 5.801-1.212 7.967-.455 1.779-.985 2.63-2.045 2.63-.682 0-1.364-.387-1.894-1.006-.985-1.16-2.121-3.326-3.939-6.188l-.758-1.237c-.151-.232-.227-.31-.378-.31-.152 0-.227.155-.303.464l-.227 1.47c-.228 1.392-.303 2.475-.303 3.017 0 .618.075.85.53 1.16.53.31.984.464.984 1.237 0 .851-1.06 1.315-3.181 1.315-2.348 0-3.484-.464-3.484-1.47 0-.386.151-.618.53-.85.303-.232.909-.232 1.06-.619.152-.31.53-1.315.834-3.017.681-3.712.833-5.955.833-6.342 0-.696-.152-.85-.758-1.005-.681-.233-.984-.465-.984-1.006 0-1.16 1.439-1.547 4.393-1.547 1.894 0 2.727 1.083 4.318 3.558l1.439 2.243c.682 1.083.985 1.78 1.288 1.78.151 0 .303-.233.303-.62l.151-1.47c.076-.85.076-1.546.076-2.088 0-.619-.076-.773-.53-.928-.606-.232-1.136-.31-1.136-1.083 0-1.005 1.212-1.47 3.56-1.47 2.197 0 3.181.31 3.181 1.393-.151.619-.53.85-1.212 1.083zm17.422 3.403c-.682 0-1.212-.387-1.742-1.238-.531-.928-.758-1.779-1.743-1.779-1.59 0-3.105 2.476-3.105 6.188 0 2.089.757 3.172 2.121 3.172.833 0 1.59-.465 2.424-1.315.833-.851 1.212-1.625 1.969-1.625.606 0 1.136.62 1.136 1.702 0 .696-.227 1.392-.606 2.166-.53.85-1.136 1.315-1.363 1.315-.152 0-.303-.078-.379-.078-.227 0-.606.387-1.288.774-1.136.619-2.424.928-3.787.928-3.788 0-6.136-2.552-6.136-6.265 0-2.475.833-4.796 2.424-6.807 1.742-2.166 3.939-3.326 6.136-3.326 1.818 0 2.803.619 2.954.619.152 0 .303-.31.606-.31.833 0 2.197 1.625 2.197 3.481 0 1.47-.833 2.398-1.818 2.398zm20.68 6.73c-1.743 2.32-4.318 3.48-7.348 3.48-4.242 0-6.59-2.32-6.59-6.575a9.95 9.95 0 0 1 2.196-6.187c1.818-2.32 4.47-3.636 7.424-3.636 3.939 0 6.439 2.398 6.439 6.343 0 2.475-.834 4.873-2.121 6.574z" fill="#24242E"/><path fill-rule="evenodd" clip-rule="evenodd" d="M22.195 12.143c-5.454 0-9.848 4.332-9.848 9.669 0 5.337 4.394 9.668 9.848 9.668 5.454 0 9.847-4.331 9.847-9.668 0-5.337-4.469-9.669-9.847-9.669z" fill="#24242E"/></svg>