<svg width="150" height="29" fill="none" xmlns="http://www.w3.org/2000/svg"><path d="M18.647.784c.02.16.07.322.07.493V22.67h-6.706v-9.913H6.756v9.923H.04c-.01-.14-.04-.291-.04-.432V1.186c0-.13.02-.271.03-.402h6.706v9.109h5.275V7.66l.03-6.877h6.606zM142.063.784c.01.2.03.402.03.603V22.66h-6.026V1.085c0-.1-.01-.2-.01-.301h6.006zM149.97.784c.01.2.03.402.03.603V22.66h-6.026V1.085c0-.1-.01-.2-.01-.301h6.006zM113.856 6.746h2.833c-1.461 5.338-2.913 10.637-4.364 15.955-1.672 0-3.303.01-4.935-.02-.12 0-.3-.221-.35-.372-.841-2.674-1.672-5.359-2.502-8.043-.07-.221-.14-.443-.261-.794-.34 1.246-.65 2.352-.95 3.458-.491 1.77-.981 3.55-1.452 5.319-.09.331-.21.462-.57.452a164.54 164.54 0 0 0-4.455 0c-.32 0-.45-.1-.55-.412a5999.498 5999.498 0 0 0-4.374-14.337c-.05-.15-.1-.312-.2-.593-.12.261-.19.412-.25.573-2.193 5.389-4.375 10.778-6.567 16.166-.57 1.398-1.23 2.745-2.492 3.69-1.752 1.307-3.613 1.347-5.515.463C75.6 27.647 75 26.22 75.36 24.832c.44-1.759 2.802-2.573 4.253-1.477.861.653 1.111 2.191.52 3.086-.06.09-.13.181-.22.322.601.09 1.042-.11 1.402-.473.84-.814 1.321-1.84 1.581-2.966.04-.17-.03-.392-.1-.573-2.001-5.177-4.013-10.345-6.025-15.513-.05-.14-.09-.281-.15-.462.18-.01.32-.03.46-.03 1.972 0 3.934.01 5.906-.01.34 0 .49.1.61.422.83 2.202 1.682 4.403 2.523 6.605.06.151.13.302.24.563 1.06-2.584 2.082-5.067 3.113-7.57h1.541c2.182 0 4.374.01 6.556-.01.39 0 .54.13.65.482.791 2.594 1.592 5.178 2.393 7.762.05.16.11.311.28.492.791-2.895 1.582-5.8 2.383-8.726 1.761 0 3.513-.01 5.254.02.121 0 .291.231.331.392.7 2.272 1.381 4.544 2.062 6.816.15.503.31 1.006.58 1.518.781-2.935 1.562-5.84 2.352-8.756zM40.528 22.66V6.747h6.236v1.96c.05.03.1.06.16.08.07-.11.13-.23.2-.331 1.752-2.232 5.335-2.715 7.627-1.639 1.612.754 2.523 2.041 2.543 3.83.04 3.901.01 7.802.01 11.713 0 .08-.02.161-.03.292h-6.126V12.094c0-.332-.02-.673-.05-1.005-.13-1.327-1.211-2.061-2.423-1.508-.66.301-1.2.875-1.751 1.367-.14.12-.15.432-.15.654-.01 3.468-.01 6.937-.01 10.405v.644c-2.072.01-4.134.01-6.236.01zM29.738 6.132c1.501.03 2.923.282 4.284.905 2.903 1.337 4.344 3.69 4.614 6.817.16 1.83-.11 3.619-1 5.258-1.362 2.493-3.544 3.78-6.327 4.082-1.791.2-3.583.17-5.275-.463-2.992-1.126-4.774-3.318-5.275-6.495-.25-1.568-.22-3.147.35-4.655 1.082-2.865 3.194-4.544 6.156-5.137.811-.171 1.652-.211 2.473-.312zm-2.192 8.697h-.09c0 .975-.03 1.94.01 2.915.03.996.24 1.96.87 2.785.821 1.076 1.952 1.066 2.723-.05.53-.764.8-1.639.81-2.544.04-2.141.04-4.283-.02-6.424-.03-1.015-.31-1.99-1.04-2.755-.73-.764-1.672-.734-2.332.09-.52.654-.891 1.398-.921 2.243-.04 1.236-.01 2.483-.01 3.74zM134.275 15.653h-11.2c0 1.217-.14 2.403.04 3.54.21 1.316 1.321 1.819 2.532 1.98 1.031.13 2.062.02 3.053-.332 1.241-.442 2.052-1.277 2.282-2.654h2.683c-.08 1.086-.431 2.01-1.232 2.724-1.581 1.388-3.423 2.152-5.515 2.333-2.122.18-4.204.1-6.145-.895-3.053-1.568-4.825-5.047-4.385-8.505.251-2.001.841-3.82 2.353-5.228 1.891-1.75 4.154-2.514 6.686-2.393 1.181.06 2.402.221 3.533.583 2.993.975 4.554 3.237 5.075 6.263.14.825.16 1.68.24 2.584zm-6.496-2.232c-.12-1.176-.18-2.302-.36-3.418-.11-.674-.511-1.247-1.091-1.619-.941-.613-2.092-.21-2.723.905-.73 1.297-.53 2.715-.59 4.132h4.764z" fill="#24242E"/><path d="M65.941 15.653c0 1.187-.07 2.272.02 3.348.1 1.156 1.101 1.98 2.543 2.162 1.19.15 2.362.02 3.473-.483.95-.432 1.591-1.136 1.852-2.171.03-.141.2-.342.31-.342.8-.03 1.592-.02 2.442-.02-.1 1.116-.45 2.06-1.27 2.775-1.622 1.427-3.534 2.171-5.676 2.332-2.082.15-4.154.09-6.036-.965-3.073-1.73-4.464-4.434-4.334-7.943.22-6.062 5.065-8.284 9.059-8.163 1.471.04 2.932.251 4.284.874 2.432 1.126 3.773 3.117 4.284 5.69.18.926.22 1.88.32 2.896-3.824.01-7.517.01-11.27.01zm4.715-2.222c-.07-1.015-.08-1.98-.23-2.925a4.036 4.036 0 0 0-.661-1.589c-.77-1.096-2.202-1.076-3.003-.01-1.03 1.367-.78 2.956-.84 4.524h4.734z" fill="#24242E"/></svg>