<svg width="140" height="44" fill="none" xmlns="http://www.w3.org/2000/svg"><path d="M34.014 1.15c-5.225 0-9.462 4.24-9.462 9.472 0 5.23 4.237 9.47 9.462 9.47s9.461-4.24 9.461-9.47c0-5.231-4.236-9.472-9.461-9.472zm0 15.578a6.103 6.103 0 0 1-6.1-6.106 6.103 6.103 0 0 1 6.1-6.106c3.369 0 6.1 2.734 6.1 6.106a6.103 6.103 0 0 1-6.1 6.106zM139.205 23.067H44.697v.636h94.508v-.636zM44.677 27.415h1.411v5.2l5.533-5.2h1.86l-6.648 6.217 7.164 7.64h-1.842l-6.067-6.454v6.454h-1.41V27.415zM54.714 31.022h1.318v4.786c0 1.168.062 1.972.187 2.411.19.628.549 1.124 1.08 1.488.53.365 1.163.547 1.9.547.734 0 1.357-.178 1.87-.532.511-.355.864-.821 1.06-1.4.132-.394.198-1.233.198-2.514v-4.786h1.345v5.03c0 1.414-.164 2.478-.494 3.194a3.764 3.764 0 0 1-1.487 1.681c-.66.406-1.491.608-2.488.608-.998 0-1.83-.202-2.499-.608a3.74 3.74 0 0 1-1.495-1.695c-.33-.725-.495-1.817-.495-3.274v-4.936zM66.117 31.022h1.318v1.837c.526-.703 1.11-1.229 1.75-1.578a4.297 4.297 0 0 1 2.089-.523c.765 0 1.444.195 2.037.585.593.39 1.03.913 1.313 1.573.282.659.423 1.686.423 3.08v5.276H73.73v-4.89c0-1.18-.05-1.968-.147-2.364-.152-.678-.445-1.188-.878-1.53-.433-.343-.998-.514-1.694-.514-.797 0-1.511.264-2.141.791a3.706 3.706 0 0 0-1.248 1.96c-.125.508-.187 1.438-.187 2.788v3.759h-1.318v-10.25zM83.017 32.143l-.847.876c-.704-.684-1.392-1.026-2.065-1.026-.428 0-.795.141-1.1.423-.304.283-.458.614-.458.99 0 .333.127.65.377.952.252.307.78.669 1.585 1.084.98.507 1.647.997 2 1.468.345.478.518 1.014.518 1.611 0 .841-.296 1.555-.887 2.138-.59.584-1.328.876-2.213.876a3.853 3.853 0 0 1-1.692-.386 3.66 3.66 0 0 1-1.334-1.065l.828-.941c.672.76 1.387 1.14 2.141 1.14.528 0 .978-.17 1.349-.51.37-.338.556-.737.556-1.195 0-.377-.123-.713-.367-1.009-.246-.289-.8-.652-1.66-1.093-.925-.476-1.553-.948-1.887-1.412a2.67 2.67 0 0 1-.5-1.592c0-.779.266-1.426.797-1.941.531-.514 1.202-.772 2.013-.772.943 0 1.89.462 2.846 1.384zM86.5 27.217h1.317v3.806h2.088v1.14h-2.088v9.109h-1.318v-9.11h-1.797v-1.14H86.5v-3.805zM97.03 32.143l-.847.876c-.705-.684-1.394-1.026-2.067-1.026-.428 0-.793.141-1.1.423-.303.283-.456.614-.456.99 0 .333.126.65.377.952.252.307.78.669 1.583 1.084.982.507 1.649.997 2 1.468.346.478.52 1.014.52 1.611 0 .841-.297 1.555-.887 2.138-.59.584-1.33.876-2.214.876a3.86 3.86 0 0 1-1.692-.386 3.654 3.654 0 0 1-1.334-1.065l.829-.941c.671.76 1.385 1.14 2.14 1.14.529 0 .978-.17 1.348-.51.372-.338.558-.737.558-1.195 0-.377-.123-.713-.368-1.009-.245-.289-.799-.652-1.66-1.093-.924-.476-1.553-.948-1.886-1.412a2.673 2.673 0 0 1-.5-1.592c0-.779.265-1.426.796-1.941.532-.514 1.202-.772 2.013-.772.943 0 1.891.462 2.846 1.384zM100.511 27.217h1.318v3.806h2.088v1.14h-2.088v9.109h-1.318v-9.11h-1.797v-1.14h1.797v-3.805zM110.257 30.759c1.577 0 2.886.571 3.922 1.715.942 1.042 1.414 2.276 1.414 3.702 0 1.431-.498 2.683-1.494 3.753-.996 1.07-2.277 1.606-3.842 1.606-1.57 0-2.854-.535-3.85-1.606-.996-1.07-1.494-2.322-1.494-3.753 0-1.42.471-2.651 1.414-3.694 1.036-1.148 2.347-1.723 3.93-1.723zm-.004 1.29c-1.095 0-2.037.405-2.824 1.216-.787.81-1.18 1.79-1.18 2.939 0 .74.179 1.432.539 2.072.358.64.843 1.135 1.453 1.484a3.985 3.985 0 0 0 2.012.523c.73 0 1.401-.175 2.012-.523a3.807 3.807 0 0 0 1.453-1.484c.36-.64.539-1.332.539-2.072 0-1.15-.395-2.13-1.185-2.94s-1.73-1.214-2.819-1.214zM121.764 27.066v1.29c-.483-.207-.898-.31-1.242-.31-.257 0-.47.051-.64.155-.169.103-.276.223-.319.358-.044.135-.067.494-.067 1.079l-.001 1.384h2.138v1.14h-2.139l-.007 9.109h-1.317v-9.108h-1.347v-1.14h1.347V29.42c0-.735.067-1.259.202-1.573.135-.314.363-.566.687-.758.324-.192.713-.288 1.172-.288.426 0 .937.088 1.533.264zM127.622 27.066v1.29c-.483-.207-.897-.31-1.242-.31-.258 0-.471.051-.64.155-.169.103-.276.223-.319.358-.045.135-.067.494-.067 1.079l-.001 1.384h2.137v1.14h-2.138l-.007 9.109h-1.318v-9.108h-1.346v-1.14h1.346V29.42c0-.735.068-1.259.202-1.573a1.62 1.62 0 0 1 .688-.758c.323-.192.713-.288 1.171-.288.427 0 .938.088 1.534.264zM137.595 37.87l1.11.585c-.365.716-.785 1.293-1.262 1.733a5.015 5.015 0 0 1-1.611 1.003c-.596.23-1.271.344-2.025.344-1.67 0-2.976-.547-3.918-1.644-.942-1.096-1.412-2.334-1.412-3.716 0-1.3.397-2.459 1.195-3.476 1.011-1.293 2.364-1.94 4.06-1.94 1.745 0 3.139.662 4.182 1.987.74.936 1.117 2.104 1.129 3.504h-9.212c.026 1.191.406 2.167 1.14 2.928.736.762 1.643 1.142 2.723 1.142.521 0 1.029-.09 1.522-.272a4.004 4.004 0 0 0 1.258-.723c.345-.3.719-.785 1.121-1.455zm0-2.76c-.176-.702-.433-1.264-.769-1.686-.336-.42-.779-.759-1.333-1.017a4.075 4.075 0 0 0-1.742-.386c-1.006 0-1.87.323-2.592.97-.527.471-.925 1.178-1.196 2.12h7.632zM53.6 8.165l-2.066 2.071c-.838-.832-1.599-1.248-2.284-1.248-.374 0-.667.08-.88.24-.211.159-.316.357-.316.594 0 .18.067.345.2.496.136.152.468.357.998.619l1.223.613c1.288.636 2.173 1.286 2.655 1.947.481.663.722 1.438.722 2.329 0 1.185-.435 2.172-1.305 2.966-.869.792-2.034 1.188-3.496 1.188-1.943 0-3.494-.76-4.653-2.283l2.056-2.245c.39.456.85.825 1.377 1.107.526.28.993.42 1.401.42.44 0 .795-.105 1.064-.317.27-.212.404-.458.404-.736 0-.514-.485-1.015-1.456-1.505l-1.126-.564c-2.154-1.085-3.23-2.444-3.23-4.077 0-1.053.406-1.953 1.218-2.7.811-.748 1.849-1.12 3.113-1.12a5.406 5.406 0 0 1 4.38 2.205zM56.645 1.375h3.347v4.921h1.989v2.889h-1.99v10.459h-3.346V9.184h-1.723V6.297h1.723V1.375zM77.113 13.937H66.368c.156.947.57 1.7 1.244 2.26.674.559 1.533.839 2.578.839 1.25 0 2.323-.437 3.221-1.31l2.818 1.324c-.703.997-1.544 1.735-2.524 2.213s-2.143.717-3.491.717c-2.091 0-3.793-.66-5.109-1.979-1.314-1.32-1.972-2.972-1.972-4.957 0-2.035.656-3.723 1.966-5.068 1.312-1.344 2.956-2.016 4.933-2.016 2.098 0 3.806.672 5.12 2.016 1.315 1.343 1.973 3.118 1.973 5.325l-.012.636zm-3.349-2.636a3.354 3.354 0 0 0-1.305-1.812c-.65-.465-1.403-.698-2.26-.698-.932 0-1.748.261-2.45.784-.442.326-.85.902-1.226 1.726h7.241zM79.202 6.296h3.347V7.67c.758-.64 1.445-1.085 2.06-1.335a4.977 4.977 0 0 1 1.89-.375c1.32 0 2.44.462 3.362 1.385.774.786 1.162 1.945 1.162 3.483v8.816h-3.305v-5.84c0-1.591-.072-2.648-.215-3.17-.142-.523-.39-.92-.745-1.194-.354-.273-.792-.41-1.314-.41-.675 0-1.256.227-1.74.68-.485.453-.82 1.079-1.008 1.879-.098.416-.147 1.318-.147 2.705v5.35h-3.347V6.296zM103.468 1.137h3.347v18.507h-3.347v-1.416c-.653.62-1.307 1.067-1.964 1.341a5.483 5.483 0 0 1-2.135.411c-1.721 0-3.21-.667-4.466-2.004-1.255-1.335-1.884-2.996-1.884-4.982 0-2.059.608-3.746 1.824-5.06 1.215-1.316 2.69-1.975 4.429-1.975.798 0 1.549.153 2.251.456.7.303 1.35.758 1.945 1.365V1.137zm-3.511 7.921c-1.034 0-1.894.365-2.578 1.095-.684.73-1.026 1.665-1.026 2.806 0 1.15.348 2.097 1.044 2.838.697.742 1.554 1.113 2.572 1.113 1.05 0 1.922-.365 2.615-1.095.692-.73 1.038-1.686 1.038-2.868 0-1.157-.346-2.095-1.038-2.813-.693-.717-1.568-1.076-2.627-1.076zM115.835 5.96c1.259 0 2.443.314 3.55.943a6.817 6.817 0 0 1 2.594 2.562 6.882 6.882 0 0 1 .932 3.492 7.015 7.015 0 0 1-.938 3.53 6.77 6.77 0 0 1-2.558 2.567c-1.079.617-2.268.926-3.567.926-1.914 0-3.546-.68-4.9-2.04-1.353-1.361-2.029-3.014-2.029-4.958 0-2.084.764-3.82 2.293-5.209 1.341-1.209 2.882-1.814 4.623-1.814zm.053 3.154c-1.041 0-1.906.36-2.598 1.084-.692.723-1.037 1.647-1.037 2.775 0 1.159.34 2.097 1.025 2.817.683.718 1.549 1.078 2.598 1.078 1.047 0 1.919-.364 2.615-1.091.696-.727 1.045-1.661 1.045-2.804 0-1.144-.343-2.072-1.026-2.787-.684-.715-1.558-1.072-2.622-1.072zM124.859 6.296h2.871V7.98c.31-.661.723-1.163 1.237-1.506a2.988 2.988 0 0 1 1.69-.514c.432 0 .885.115 1.359.343l-1.042 2.882c-.393-.197-.716-.295-.968-.295-.516 0-.951.319-1.306.956-.356.638-.533 1.889-.533 3.752l.011.65v5.396h-3.319V6.296zM132.576 6.296h1.19c.008-1.75.037-2.785.086-3.104.09-.736.399-1.318.928-1.747.528-.43 1.276-.645 2.242-.645.698 0 1.483.16 2.36.478v2.549c-.485-.14-.883-.209-1.195-.209-.394 0-.682.083-.863.246-.13.123-.197.377-.197.762l-.012 1.67h2.128V9.13h-2.129v10.515h-3.348V9.129h-1.19V6.296zM24.483 26.453 41.198 43.2V27.653a18.407 18.407 0 0 1-7.184 1.453c-3.488-.001-6.75-.97-9.531-2.653zm-7.079-23.91H.618l17.575 17.608a18.417 18.417 0 0 1-2.642-9.53c0-2.896.667-5.637 1.853-8.078z" fill="#24242E"/><path d="M19.237 10.621a14.763 14.763 0 0 1 2.41-8.078h-2.362a16.752 16.752 0 0 0-2.065 8.078c.001 9.285 7.519 16.811 16.793 16.813 2.571 0 5.007-.582 7.185-1.616v-2.28a14.72 14.72 0 0 1-7.185 1.875c-8.16-.014-14.762-6.624-14.776-14.792zm14.776 11.136c-6.143-.01-11.113-4.986-11.124-11.135a11.128 11.128 0 0 1 3.48-8.079h-2.723a13.11 13.11 0 0 0-2.774 8.079c.001 7.265 5.883 13.154 13.141 13.155 2.653 0 5.12-.79 7.185-2.142v-2.523a11.09 11.09 0 0 1-7.185 2.645z" fill="#24242E"/></svg>