<svg width="92" height="48" fill="none" xmlns="http://www.w3.org/2000/svg"><path fill-rule="evenodd" clip-rule="evenodd" d="M16.734.251H.439a.435.435 0 0 0-.436.486V3.9a.439.439 0 0 0 .436.437h5.48v20.286a.439.439 0 0 0 .437.438h4.558a.436.436 0 0 0 .437-.438V4.29h5.48a.436.436 0 0 0 .436-.438V.737a.535.535 0 0 0-.533-.486zM36.714.251H20.42a.435.435 0 0 0-.437.486v23.838a.439.439 0 0 0 .437.437h16.294a.435.435 0 0 0 .485-.437V21.46a.44.44 0 0 0-.485-.486h-11.25v-6.568h8.583a.435.435 0 0 0 .485-.486v-3.162a.438.438 0 0 0-.485-.438h-8.584V4.289h11.251a.435.435 0 0 0 .485-.438V.737c.049-.291-.194-.486-.485-.486zM75.657.251H59.362a.435.435 0 0 0-.436.486v23.838a.438.438 0 0 0 .436.437h16.295a.484.484 0 0 0 .485-.437V21.46a.488.488 0 0 0-.485-.486h-11.3v-6.568h8.632a.436.436 0 0 0 .485-.486v-3.162a.438.438 0 0 0-.485-.438h-8.632V4.289h11.3a.484.484 0 0 0 .485-.438V.737c.048-.291-.243-.486-.485-.486zM91.515 14.018H81.379a.436.436 0 0 0-.436.438v10.119a.439.439 0 0 0 .436.437h10.136a.436.436 0 0 0 .436-.437v-10.07a.487.487 0 0 0-.436-.487zM90.787 10.126h-8.68V1.42h8.68v8.707zm.728-9.875H81.379a.435.435 0 0 0-.436.486v10.07a.44.44 0 0 0 .257.45.435.435 0 0 0 .18.037h10.135a.435.435 0 0 0 .436-.487V.737a.44.44 0 0 0-.257-.449.435.435 0 0 0-.18-.037zM46.22 4.873a6.338 6.338 0 0 1 3.152-.827c1.93.026 3.845.354 5.674.973a.532.532 0 0 0 .582-.341l.485-2.724a.635.635 0 0 0-.437-.827 22.004 22.004 0 0 0-6.304-1.12 15.763 15.763 0 0 0-4.22.439c-3.103.778-5.043 3.113-5.77 6.762-.3 1.8-.447 3.623-.437 5.448a32.31 32.31 0 0 0 .437 5.4c.727 3.648 2.667 5.983 5.77 6.762 1.381.335 2.8.483 4.22.438a22.244 22.244 0 0 0 6.304-1.07.68.68 0 0 0 .437-.876l-.582-2.627c-.048-.292-.291-.39-.582-.34-1.815.61-3.712.938-5.625.972a6.048 6.048 0 0 1-3.201-.827c-1.164-.73-1.65-1.897-1.989-3.454a27.726 27.726 0 0 1-.34-4.33c-.01-1.383.088-2.766.292-4.134.29-1.654.97-2.92 2.134-3.697zM5.629 35.034c-1.746 0-2.91.438-2.91 2.48v2.433c0 2.092 1.164 2.481 2.91 2.481a19.44 19.44 0 0 0 2.764-.243v1.07a16.53 16.53 0 0 1-2.861.243c-3.347 0-4.026-1.508-4.026-3.55v-2.19c0-2.19.485-3.746 4.22-3.746.97 0 1.988.195 2.667.243v1.12a10.157 10.157 0 0 0-2.764-.341z" fill="#24242E"/><path d="M11.933 30.51h-1.212v12.755h1.212V30.509z" fill="#24242E"/><path fill-rule="evenodd" clip-rule="evenodd" d="M18.286 35.034c-1.94 0-2.91.583-2.91 2.53v2.286c0 2.043 1.164 2.53 2.91 2.53 1.746 0 2.958-.584 2.958-2.53v-2.287c0-1.994-1.067-2.53-2.958-2.53zm0 8.416c-3.25 0-4.22-1.557-4.22-3.6v-2.287c0-1.994.777-3.648 4.22-3.648 3.443 0 4.22 1.654 4.22 3.648v2.287c0 2.043-.874 3.6-4.22 3.6zM24.154 41.893c.873.306 1.79.47 2.716.486 1.503 0 2.521-.194 2.521-1.362 0-1.167-.582-1.119-1.309-1.508l-1.843-.924c-1.31-.584-1.843-1.168-1.843-2.432 0-1.265 1.116-2.238 3.686-2.238a11.7 11.7 0 0 1 2.182.292v1.07a8.894 8.894 0 0 0-2.182-.243c-1.649 0-2.376.389-2.376 1.216s.388.973 1.018 1.313l2.037.973c1.212.584 1.94 1.314 1.94 2.53 0 1.216-1.358 2.432-3.783 2.432a8.078 8.078 0 0 1-2.716-.438v-1.167h-.048zM38.945 38.001v-.584c0-1.8-.921-2.383-2.473-2.383-1.552 0-2.716.632-2.861 2.967h5.334zm-5.334.925c0 2.675.776 3.453 3.298 3.453.828-.004 1.654-.07 2.473-.194v1.021c-.817.144-1.644.225-2.473.244-3.686 0-4.51-1.46-4.51-4.72 0-4.037 1.551-4.815 4.122-4.815 2.57 0 3.637.778 3.637 3.648 0 .39 0 .827-.049 1.362h-6.498zM50.051 43.401h-1.164c-3.055 0-2.958-2.384-2.958-2.967v-5.352h-1.455v-1.021h1.455l.291-2.627h.97v2.627h2.764v1.021H47.19v5.643c0 .779.194 1.654 1.891 1.654.326.014.653-.018.97-.097v1.119zM55.628 35.034c-1.94 0-2.958.583-2.958 2.53v2.286c0 2.043 1.212 2.53 2.958 2.53 1.746 0 2.91-.584 2.91-2.53v-2.287c0-1.994-1.067-2.53-2.91-2.53zm0 8.416c-3.25 0-4.22-1.557-4.22-3.6v-2.287c0-1.994.777-3.648 4.22-3.648 3.443 0 4.219 1.654 4.219 3.648v2.287c-.097 2.043-.97 3.6-4.22 3.6zM64.357 45.98c2.328-.146 3.25-.633 3.929-2.336l-3.783-9.535h1.406l3.007 8.076 3.007-8.076h1.406l-3.443 8.903c-.97 2.724-1.406 3.892-5.432 4.135v-1.168h-.097zM78.13 35.034c-1.94 0-2.91.583-2.91 2.53v2.286c0 2.043 1.164 2.53 2.91 2.53 1.746 0 2.91-.584 2.91-2.53v-2.287c0-1.994-1.018-2.53-2.91-2.53zm0 8.416c-3.249 0-4.219-1.557-4.219-3.6v-2.287c0-1.994.776-3.648 4.22-3.648 3.442 0 4.219 1.654 4.219 3.648v2.287c-.049 2.043-.922 3.6-4.22 3.6zM85.599 34.11v5.74c0 1.849.387 2.53 2.57 2.53a10.975 10.975 0 0 0 2.619-.39v-7.88H92v9.194h-.873l-.145-.34a9.43 9.43 0 0 1-2.813.534c-2.813 0-3.734-.73-3.734-3.55v-5.839h1.163z" fill="#24242E"/></svg>