<svg width="69" height="58" fill="none" xmlns="http://www.w3.org/2000/svg"><path d="M0 32.768h69V58H0V32.768zM43.358 13.417c-1.243 0-1.918 1.067-1.918 3.095 0 2.498.847 3.533 2.1 3.533 1.007-.01 1.52-.427 1.992-1.025v-4.568c-.493-.672-1.242-1.035-2.174-1.035zM31.126 13.182c-1.168 0-1.896.95-2.014 2.167h4.21c-.097-1.09-.75-2.167-2.196-2.167zM54.112 18.71c0 .855.492 1.613 1.863 1.613 1.05.01 1.896-.524 2.24-1.1v-1.526c-.558-.342-1.104-.513-2.24-.513-1.21 0-1.863.555-1.863 1.527z" fill="#24242E"/><path d="M0 0v30.206h69V0H0zm13.796 22.777h-3.32L6.061 10.652h3.546l1.8 5.615c.3.928.631 2.08.77 2.657.14-.598.472-1.708.771-2.657l1.8-5.615h3.46l-4.413 12.125zm9.736 0h-3.32V10.652h3.32v12.125zm-1.67-13.96c-1.533 0-2.807-1.27-2.807-2.776 0-1.515 1.274-2.775 2.806-2.775s2.806 1.27 2.806 2.775c0 1.516-1.274 2.775-2.806 2.775zm14.545 8.933H29.07c.6 3.79 4.905 2.444 5.901 1.622l.054.011.492 2.434c-.781.597-2.163 1.216-3.93 1.216-3.524 0-5.774-2.476-5.774-6.308 0-3.714 2.357-6.329 5.463-6.329 3.288.01 5.173 2.871 5.173 6.34 0 .46-.021.79-.042 1.014zm4.659 9.798-.504-2.657.032-.032c2.475 0 5.174.074 4.992-2.86-.61.533-1.425 1.013-2.592 1.013-2.614 0-4.767-1.942-4.767-6.468 0-3.629 1.725-6.17 4.767-6.17 1.07 0 2.014.417 2.592.95l.01-.693h3.214l-.01 10.076c.181 5.849-3.396 6.916-7.734 6.841zm20.393-4.728h-3.191l-.032-.811c-.59.598-1.607 1.067-2.753 1.067-2.292 0-4.574-1.387-4.574-4.323 0-2.679 2.196-4.024 4.97-4.024 1.125 0 1.842.235 2.357.48v-.597c0-1.387-1.832-2.55-5.452-.694l-.043-.01-.46-2.434c2.034-1.313 9.178-2.423 9.178 3.373v7.973z" fill="#24242E"/></svg>