<svg width="143" height="26" fill="none" xmlns="http://www.w3.org/2000/svg"><path d="M137.405 25.524V13.428c0-1.555-.915-2.491-2.589-2.491a5.872 5.872 0 0 0-2.127.382v14.205h-5.616V7.826a20.53 20.53 0 0 1 7.658-1.346c5.752 0 8.269 2.246 8.269 6.286v12.758h-5.595zm-13.446-8.575-11.438 1.526c.447 2.038 2.184 3.039 4.46 3.039a12.174 12.174 0 0 0 5.177-1.138l1.567 4.22a18.09 18.09 0 0 1-7.183 1.346c-6.383 0-9.503-4.212-9.503-9.742 0-5.702 3.269-9.713 8.786-9.713 5.347 0 8.205 3.6 8.205 8.741.012.575-.012 1.15-.071 1.72zm-8.268-6.48c-1.979 0-3.511 1.382-3.546 4.457l6.474-.828c0-2.333-1.127-3.608-2.928-3.608v-.021zm-12.503 6.206a114.656 114.656 0 0 1-2.985 8.835H93.53a101.486 101.486 0 0 1-3.014-8.712c-.872-2.93-1.631-7.294-2.284-10.332h5.837c.404 2.066.865 5.479 1.418 7.488.553 2.008 1.1 3.953 1.723 5.839.582-1.92 1.118-3.917 1.61-5.99.49-2.067.894-5.43 1.206-7.337h5.467c-.688 3.01-1.461 7.33-2.305 10.21zm-24.104 9.26c-5.786 0-8.644-2.16-8.644-6.15 0-4.938 4.964-6.083 10.517-6.393v-.72c0-1.483-1.022-2.16-2.93-2.16-1.786.06-3.548.44-5.204 1.123L71.46 7.834a20.78 20.78 0 0 1 7.255-1.347c5 0 7.517 1.937 7.517 6.876v11.232c-1.39.72-4.22 1.34-7.149 1.34zm1.873-8.986c-3.029.144-5.312.49-5.312 2.7 0 1.52 1.262 2.347 3.27 2.347a7.283 7.283 0 0 0 2.041-.273v-4.774zM66.56 6.48a5.299 5.299 0 0 0-3.546 1.663V6.487h-4.397v19.037h5.617V11.282a5.23 5.23 0 0 1 1.907-.31 6.146 6.146 0 0 1 2.071.347l.986-4.63a16.307 16.307 0 0 0-2.638-.209zM54.775 25.848a11 11 0 0 1-1.943.151 7.244 7.244 0 0 1-1.809-.216 3.426 3.426 0 0 1-1.418-.72 3.439 3.439 0 0 1-.943-1.44 6.375 6.375 0 0 1-.334-2.21V0h5.631v19.908c-.034.426.06.853.27 1.224a1.12 1.12 0 0 0 .971.374h1.007v4.018c-.471.135-.95.243-1.432.324zm-17.077.087c-5.786 0-8.644-2.16-8.644-6.15 0-4.938 4.964-6.083 10.517-6.393v-.72c0-1.483-1.022-2.16-2.922-2.16-1.79.06-3.554.44-5.212 1.123l-1.362-3.801a20.815 20.815 0 0 1 7.255-1.347c4.964 0 7.517 1.937 7.517 6.876v11.232c-1.39.72-4.22 1.34-7.149 1.34zm1.873-8.986c-3.029.144-5.305.49-5.305 2.7 0 1.52 1.255 2.347 3.262 2.347.69.004 1.378-.09 2.043-.28v-4.767zm-14.226-.274a150.936 150.936 0 0 1-2.752 8.835h-6.439L13.61 15.178l-2.412 10.346h-6.53a157.072 157.072 0 0 1-2.618-8.64C1.25 13.831.56 9.475 0 6.48h5.8c.334 2.11.71 5.515 1.121 7.46.412 1.943.865 3.873 1.355 5.76l2.773-13.22h5.673l2.836 13.255c.986-3.989 1.78-9.36 2.383-13.255h5.432c-.532 2.995-1.227 7.315-2.028 10.195z" fill="#24242E"/></svg>