<svg width="142" height="142" fill="none" xmlns="http://www.w3.org/2000/svg"><path d="M139.042 68.042A2.93 2.93 0 0 1 142 71a2.93 2.93 0 0 1-2.958 2.958h-2.959v-5.916h2.959zM73.958 68.042h62.125v5.916H73.958v-5.916z" fill="#353542"/><path d="M127.208 142H71a2.93 2.93 0 0 0 2.958-2.958v-2.959h53.25a8.863 8.863 0 0 0 8.875-8.875v-53.25h2.959A2.93 2.93 0 0 0 142 71v56.208c0 8.165-6.627 14.792-14.792 14.792zM142 14.792V71a2.93 2.93 0 0 0-2.958-2.958h-2.959v-53.25a8.863 8.863 0 0 0-8.875-8.875h-53.25V2.958A2.93 2.93 0 0 0 71 0h56.208C135.373 0 142 6.627 142 14.792z" fill="#353542"/><path d="M118.333 35.5a2.93 2.93 0 0 1 2.959 2.958 2.93 2.93 0 0 1-2.959 2.959H94.667a2.93 2.93 0 0 1-2.959-2.959 2.93 2.93 0 0 1 2.959-2.958h23.666zM118.333 94.667a2.93 2.93 0 0 1 2.959 2.958 2.93 2.93 0 0 1-2.959 2.958H94.667a2.93 2.93 0 0 1-2.959-2.958 2.93 2.93 0 0 1 2.959-2.958h23.666zM118.333 112.417a2.93 2.93 0 0 1 2.959 2.958 2.93 2.93 0 0 1-2.959 2.958H94.667a2.93 2.93 0 0 1-2.959-2.958 2.93 2.93 0 0 1 2.959-2.958h23.666zM73.958 136.083v2.959A2.93 2.93 0 0 1 71 142a2.93 2.93 0 0 1-2.958-2.958v-2.959h5.916zM68.042 73.958h5.916v62.125h-5.916V73.958zM68.042 68.042h5.916v5.916h-5.916v-5.916zM68.042 5.917h5.916v62.125h-5.916V5.917zM73.958 2.958v2.959h-5.916V2.958A2.93 2.93 0 0 1 71 0a2.93 2.93 0 0 1 2.958 2.958zM5.917 68.042h62.125v5.916H5.917v-5.916zM47.333 35.5a2.93 2.93 0 0 1 2.959 2.958 2.93 2.93 0 0 1-2.959 2.959h-8.875V35.5h8.875zM46.446 113.304a2.86 2.86 0 0 1 0 4.142c-.533.592-1.302.887-2.071.887-.77 0-1.538-.295-2.07-.887l-6.805-6.804 4.142-4.142 6.804 6.804zM42.304 95.554a2.86 2.86 0 0 1 4.142 0 2.86 2.86 0 0 1 0 4.142l-6.804 6.804-4.142-4.142 6.804-6.804zM31.341 106.494l4.142-4.142 4.142 4.142-4.142 4.142-4.142-4.142zM38.458 41.417v8.875A2.93 2.93 0 0 1 35.5 53.25a2.93 2.93 0 0 1-2.958-2.958v-8.875h5.916zM32.542 35.5h5.916v5.917h-5.916V35.5z" fill="#353542"/><path d="M38.458 26.625V35.5h-5.916v-8.875a2.93 2.93 0 0 1 2.958-2.958 2.93 2.93 0 0 1 2.958 2.958zM35.5 102.358l-4.142 4.142-6.804-6.804a2.86 2.86 0 0 1 0-4.142 2.86 2.86 0 0 1 4.142 0l6.804 6.804zM32.542 35.5v5.917h-8.875a2.93 2.93 0 0 1-2.959-2.959 2.93 2.93 0 0 1 2.959-2.958h8.875zM28.696 117.446c-.533.592-1.302.887-2.07.887-.77 0-1.54-.295-2.072-.887a2.86 2.86 0 0 1 0-4.142l6.804-6.804 4.142 4.142-6.804 6.804zM5.917 68.042v5.916H2.958A2.93 2.93 0 0 1 0 71a2.93 2.93 0 0 1 2.958-2.958h2.959z" fill="#353542"/><path d="M0 14.792C0 6.627 6.627 0 14.792 0H71a2.93 2.93 0 0 0-2.958 2.958v2.959h-53.25a8.863 8.863 0 0 0-8.875 8.875v53.25H2.958A2.93 2.93 0 0 0 0 71V14.792zM5.917 127.208a8.863 8.863 0 0 0 8.875 8.875h53.25v2.959A2.93 2.93 0 0 0 71 142H14.792C6.627 142 0 135.373 0 127.208V71a2.93 2.93 0 0 0 2.958 2.958h2.959v53.25z" fill="#353542"/></svg>