<svg width="191" height="185" fill="none" xmlns="http://www.w3.org/2000/svg"><path d="M54.12 40.35c23.746.03 44.707 14.968 51.718 36.859h11.947c1.758 0 3.183-1.375 3.183-3.072V18.85c-3.516 0-6.366-2.75-6.366-6.143V6.564c0-3.393 2.85-6.143 6.366-6.143h63.664c3.516 0 6.367 2.75 6.367 6.143v6.143c0 3.393-2.851 6.143-6.367 6.143v147.433c3.516 0 6.367 2.75 6.367 6.143v6.143c0 3.392-2.851 6.143-6.367 6.143h-63.664c-3.516 0-6.366-2.751-6.366-6.143v-6.143c0-3.393 2.85-6.143 6.366-6.143v-55.288c0-1.696-1.425-3.071-3.183-3.071h-11.947c-8.177 25.643-35.164 41.132-62.42 35.827C16.16 138.446-2.493 114.073.27 87.377 3.034 60.68 26.316 40.349 54.121 40.35zM184.633 6.565h-63.664v6.143h63.664V6.564zm-63.664 172.005h63.664v-6.143h-63.664v6.143zm-3.183-76.788c5.274 0 9.55 4.125 9.55 9.214v55.288h50.931V18.85h-50.931v55.287c0 5.09-4.276 9.215-9.55 9.215h-10.444a47.896 47.896 0 0 1 0 18.429h10.444zm-63.664 36.858c26.37 0 47.748-20.627 47.748-46.073 0-25.445-21.377-46.072-47.748-46.072-26.37 0-47.748 20.627-47.748 46.072.03 25.434 21.39 46.044 47.748 46.073z" fill="#353542"/><path d="M54.12 52.637c22.855 0 41.382 17.877 41.382 39.93 0 22.052-18.527 39.929-41.381 39.929-22.855 0-41.382-17.877-41.382-39.93.026-22.042 18.538-39.904 41.382-39.93zm0 73.716c19.34 0 35.016-15.127 35.016-33.787 0-18.66-15.677-33.786-35.015-33.786-19.339 0-35.016 15.126-35.016 33.786.023 18.651 15.687 33.765 35.016 33.787z" fill="#353542"/><path d="M50.938 83.917v-12.85c0-1.697 1.425-3.072 3.183-3.072 1.758 0 3.183 1.375 3.183 3.071v12.851c3.814 1.282 6.37 4.753 6.37 8.65 0 3.897-2.556 7.367-6.37 8.649v6.708c0 1.697-1.425 3.072-3.183 3.072-1.758 0-3.183-1.375-3.183-3.072v-6.708c-3.814-1.282-6.37-4.752-6.37-8.65 0-3.896 2.556-7.367 6.37-8.649zm3.183 11.721c1.758 0 3.183-1.375 3.183-3.071 0-1.697-1.425-3.072-3.183-3.072-1.758 0-3.183 1.375-3.183 3.072 0 1.696 1.425 3.071 3.183 3.071zM168.716 24.993c1.758 0 3.183 1.375 3.183 3.072v6.143c0 1.696-1.425 3.071-3.183 3.071-1.758 0-3.183-1.375-3.183-3.071v-6.143c0-1.697 1.425-3.072 3.183-3.072zM168.716 43.422c1.758 0 3.183 1.376 3.183 3.072v27.644c0 1.696-1.425 3.071-3.183 3.071-1.758 0-3.183-1.375-3.183-3.072V46.495c0-1.697 1.425-3.072 3.183-3.072z" fill="#353542"/></svg>