<svg width="65" height="65" fill="none" xmlns="http://www.w3.org/2000/svg"><path d="m8.973 33.408 2.401-2.404c.865-.864-.481-2.212-1.347-1.346l-2.401 2.404c-.852.853.475 2.218 1.347 1.346z" fill="#1E489B"/><path d="M64.584 18.298c-.954-1.906-3.352-2.705-5.26-1.748l-10.063 5.051v-4.476a2.595 2.595 0 0 0-2.592-2.593h-.305c.066-.22.102-5.193.102-5.193 0-1.281-.998-2.33-2.258-2.417V.952A.952.952 0 0 0 43.256 0H29.449a.952.952 0 0 0-.952.952v5.969a2.426 2.426 0 0 0-2.278 2.418s.036 4.973.102 5.193h-.503a2.595 2.595 0 0 0-2.591 2.593v8.083h-1.57a2.87 2.87 0 0 0-2.866 2.866v2.012h-2.75c-1.084-3.28-4.175-5.656-7.812-5.656-.756 0-1.504.103-2.225.305-1.177.33-.665 2.165.514 1.834a6.331 6.331 0 0 1 1.71-.235c3.488 0 6.325 2.84 6.325 6.33s-2.837 6.33-6.324 6.33c-3.487 0-6.324-2.84-6.324-6.33 0-1.339.413-2.618 1.193-3.7.715-.992-.829-2.107-1.545-1.114a8.18 8.18 0 0 0-1.552 4.814c0 4.54 3.69 8.235 8.228 8.235 3.637 0 6.728-2.375 7.812-5.656h2.75v2.012a2.87 2.87 0 0 0 2.866 2.866h1.57v7.819a2.595 2.595 0 0 0 2.591 2.593c.131-.033.318 0 .453 0a2.423 2.423 0 0 0-.052.501v4.5a2.427 2.427 0 0 0 2.278 2.418v6.096c0 .526.426.952.952.952h13.807a.952.952 0 0 0 .952-.952V57.95a2.427 2.427 0 0 0 2.259-2.417v-4.5c0-.172-.02-.34-.053-.501h.255a2.595 2.595 0 0 0 2.592-2.593v-3.532c0-1.223-1.904-1.224-1.904 0v3.532c0 .38-.309.689-.688.689H25.82a.689.689 0 0 1-.688-.69V17.126c0-.38.308-.688.687-.688H46.67c.38 0 .688.309.688.688v5.432l-7.098 3.563a.948.948 0 0 0-.341-.327 7.875 7.875 0 0 0-3.858-1.009c-4.342 0-7.875 3.535-7.875 7.88 0 4.346 3.533 7.881 7.875 7.881a7.85 7.85 0 0 0 7.834-7.077.951.951 0 0 0-.038-.38l3.5-1.756v7.363c0 1.223 1.905 1.224 1.905 0v-8.319l13.577-6.815a3.927 3.927 0 0 0 1.746-5.263zM28.123 55.534v-4.5a.52.52 0 0 1 .388-.501h3.574v5.522h-3.44a.522.522 0 0 1-.522-.521zm5.866.521v-5.522h4.707v5.522H33.99zm8.315 7.04H30.4v-5.008h11.903v5.009zm2.258-12.06v4.499a.522.522 0 0 1-.521.52H40.6v-5.521h3.574a.52.52 0 0 1 .388.502zM16.427 33.338a8.3 8.3 0 0 0 .03-.675c0-.227-.012-.45-.03-.674h2.364v1.349h-2.364zm5.23 4.878a.963.963 0 0 1-.962-.962v-9.181c0-.53.431-.962.962-.962h1.57v11.105h-1.57zm17.039-29.4v5.542H33.99V8.818h4.706zm5.866.522v4.499a.522.522 0 0 1-.521.521H40.6V8.818H44.04c.287 0 .521.233.521.52zm-14.16-7.435h11.902v5.01H30.4v-5.01zm-2.28 7.435c0-.288.235-.521.522-.521H32.085v5.541h-3.44a.522.522 0 0 1-.522-.521v-4.5zM36.06 38.64c-3.292 0-5.97-2.68-5.97-5.976s2.678-5.977 5.97-5.977c.762 0 1.516.147 2.217.427L34.32 29.1a.947.947 0 0 0-.26.193 3.923 3.923 0 0 0-1.919 3.37 3.925 3.925 0 0 0 3.919 3.922c.836 0 1.612-.264 2.249-.713l3.551-1.782a5.95 5.95 0 0 1-5.8 4.55zm1.249-4.396-.33.165a.949.949 0 0 0-.201.137 1.999 1.999 0 0 1-.718.135 2.018 2.018 0 0 1 0-4.035c1.11 0 2.015.905 2.015 2.017 0 .64-.3 1.21-.766 1.58zm24.675-12.386-22.013 11.05a3.923 3.923 0 0 0-1.856-3.581l22.064-11.076c2.338-1.174 4.113 2.448 1.805 3.607z" fill="#1E489B"/><path d="M60.877 19.222c-1.225 0-1.227 1.904 0 1.904 1.225 0 1.227-1.904 0-1.904z" fill="#1E489B"/></svg>