<svg width="36" height="31" fill="none" xmlns="http://www.w3.org/2000/svg"><path d="M20.085 25.088H2.306M-7.474 25.088h-3.077a1.714 1.714 0 0 1-1.712-1.709V2.71c0-.946.764-1.709 1.712-1.709h32.877c.459 0 .886.183 1.212.498l10.963 10.946c.326.326.499.753.499 1.21v9.726c0 .946-.764 1.709-1.712 1.709h-3.423" stroke="#fff" stroke-miterlimit="10"/><path d="M26.024 3.99H-8.055a.839.839 0 0 0-.835.835v5.686c0 .458.377.834.835.834H33.38M17.018 3.99V25.09M-2.584 29.971c2.7 0 4.89-2.186 4.89-4.883a4.887 4.887 0 0 0-4.89-4.882c-2.7 0-4.89 2.186-4.89 4.882a4.887 4.887 0 0 0 4.89 4.883zM24.975 29.971c2.7 0 4.89-2.186 4.89-4.883a4.887 4.887 0 0 0-4.89-4.882c-2.7 0-4.89 2.186-4.89 4.882a4.887 4.887 0 0 0 4.89 4.883zM35 15.404h-4.014a.978.978 0 0 0-.978.977v1.526c0 .539.438.976.978.976H35M22.764 15.404h-3.26M35 22.108h-3.117M25.902 25.088h-1.477" stroke="#fff" stroke-miterlimit="10"/></svg>