<svg width="25" height="25" fill="none" xmlns="http://www.w3.org/2000/svg"><g clip-path="url(#prefix__a)" fill="#fff"><path d="M12.504 6.081a6.414 6.414 0 0 0-6.414 6.415 6.414 6.414 0 0 0 6.414 6.414 6.414 6.414 0 0 0 6.415-6.414 6.414 6.414 0 0 0-6.415-6.415zm0 10.578a4.162 4.162 0 0 1-4.163-4.163 4.163 4.163 0 1 1 8.327 0 4.162 4.162 0 0 1-4.164 4.163z"/><path d="M17.654.08c-2.3-.108-7.997-.103-10.299 0C5.332.174 3.548.663 2.109 2.1-.295 4.506.012 7.745.012 12.496c0 4.863-.27 8.027 2.097 10.395 2.414 2.413 5.7 2.097 10.395 2.097 4.817 0 6.48.003 8.182-.656 2.316-.9 4.064-2.97 4.235-6.687.108-2.3.102-7.997 0-10.299-.207-4.388-2.562-7.05-7.267-7.266zm3.64 21.22c-1.576 1.576-3.762 1.436-8.82 1.436-5.209 0-7.297.077-8.821-1.451-1.755-1.747-1.438-4.552-1.438-8.806 0-5.755-.59-9.9 5.186-10.195 1.327-.047 1.717-.063 5.058-.063l.047.031c5.551 0 9.906-.58 10.168 5.194.06 1.318.073 1.714.073 5.05-.001 5.147.096 7.248-1.453 8.804z"/><path d="M19.173 7.327a1.499 1.499 0 1 0 0-2.998 1.499 1.499 0 0 0 0 2.998z"/></g><defs><clipPath id="prefix__a"><path fill="#fff" d="M0 0h25v25H0z"/></clipPath></defs></svg>