<svg width="180" height="40" fill="none" xmlns="http://www.w3.org/2000/svg"><path fill-rule="evenodd" clip-rule="evenodd" d="M43.084 29.435c.04.13.082.216.164.26.041.043.083.086.124.086.041 0 .082-.043.123-.086a.667.667 0 0 0 .165-.26l3.583-10.95h5.311l-5.311 13.72a4.442 4.442 0 0 1-.495.996c-.205.303-.453.606-.74.822-.289.26-.66.433-1.071.563a5.29 5.29 0 0 1-1.565.216 5.29 5.29 0 0 1-1.565-.216 3.653 3.653 0 0 1-1.07-.563c-.289-.216-.536-.52-.742-.822a4.442 4.442 0 0 1-.494-.996l-5.312-13.72h5.312l3.583 10.95zm9.923 5.194V18.485h4.942v16.144h-4.941zm15.648-8.7c.288 0 .618 0 .906-.043.288-.043.535-.13.741-.39.247-.303.412-.779.412-1.385 0-.216-.041-.433-.082-.649a1.058 1.058 0 0 0-.371-.606c-.206-.173-.453-.303-.7-.303-.288-.043-.535-.043-.824-.043H65.98c-.206 0-.371.043-.453.086-.124.087-.206.13-.248.26a2.166 2.166 0 0 0-.123.303c0 .087-.041.216-.041.303v2.51h3.541v-.043zm-8.524 8.7V21.514c0-.346.041-.692.124-1.125a2.35 2.35 0 0 1 .494-1.082c.165-.216.412-.39.741-.563.33-.173.782-.26 1.277-.26h8.482c.618 0 1.195.087 1.771.217.535.13 1.03.433 1.482.952.371.39.66.953.824 1.645.206.693.288 1.601.288 2.77 0 .26 0 .65-.041 1.082-.041.433-.082.909-.165 1.428-.082.477-.247.953-.412 1.429-.164.476-.453.822-.74 1.125-.371.303-.783.563-1.318.693-.495.13-.989.216-1.4.216h-6.465v4.674H60.13v-.086zm21.866-4.025h8.524c.37 0 .617-.044.7-.174.082-.086.164-.216.164-.346 0-.26-.082-.433-.288-.562a11.052 11.052 0 0 0-.659-.26l-5.93-1.731c-.452-.13-.823-.303-1.111-.563a5.071 5.071 0 0 1-.66-.693c-.37-.519-.575-1.082-.7-1.73a14.643 14.643 0 0 1-.123-1.862c0-.52.042-1.039.124-1.645.082-.562.37-1.125.824-1.601.247-.26.576-.476.988-.693.412-.216.947-.303 1.606-.303h10.13v4.026h-7.824c-.289 0-.495 0-.577.043a.306.306 0 0 0-.206.086.48.48 0 0 0-.247.433c0 .26.124.433.412.563.288.13.576.216.865.303l5.188 1.471c.33.087.7.217 1.112.433.412.174.741.433 1.03.736.246.26.411.52.576.823.165.302.247.649.33.952.082.346.123.649.123.995.041.303.041.606.041.91 0 .475-.041.995-.124 1.6a3.803 3.803 0 0 1-.617 1.602 2.897 2.897 0 0 1-.7.736 2.677 2.677 0 0 1-.783.39c-.288.086-.535.13-.823.13-.288 0-.535.042-.782.042H82.037v-4.111h-.041zm21.742-2.987h3.17l-1.4-4.068a.34.34 0 0 1-.082-.217.537.537 0 0 0-.082-.13c-.042 0-.083.044-.083.13a.755.755 0 0 0-.082.217l-1.441 4.068zm-1.936-7.358-5.682 14.37h5.229l1.195-3.333h5.517l1.195 3.333h5.229l-5.682-14.37c-.165-.433-.371-.779-.659-1.038a2.726 2.726 0 0 0-.824-.607 3.427 3.427 0 0 0-.947-.26c-.329-.043-.7-.043-1.071-.043-.617 0-1.111.044-1.482.13-.371.087-.7.217-.988.39-.247.173-.494.39-.618.606-.123.26-.288.52-.412.822zm29.895 11.643c0 .13-.041.39-.082.693-.041.303-.165.649-.412.952-.206.303-.535.606-.988.866-.453.26-1.071.389-1.894.389-.288 0-.577 0-.865-.043-.288-.044-.576-.087-.865-.217a2.29 2.29 0 0 1-.823-.476c-.288-.216-.535-.52-.741-.865l-5.559-8.224c-.042-.087-.124-.173-.206-.26-.083-.086-.165-.13-.206-.13-.041 0-.083 0-.165.044-.082.043-.123.173-.123.39v9.565h-3.83V21.168c0-.52.082-.952.288-1.342.206-.346.453-.649.783-.865.329-.217.7-.39 1.111-.476.412-.087.824-.13 1.277-.13.206 0 .453 0 .741.043s.577.087.865.173c.288.087.576.26.865.433.288.216.535.476.782.822l5.559 8.267c.041.087.124.173.206.26.082.087.123.13.247.13s.206-.043.206-.13c.041-.087.041-.173.041-.26v-9.608h3.83v13.417h-.042zm6.342 2.727v-12.12h-5.477v-4.024h15.895v4.025h-5.477v12.119h-4.941zm13.877 0c-.33 0-.659-.043-.947-.087-.33-.043-.618-.216-.906-.476-.371-.303-.536-.606-.618-.952a8.89 8.89 0 0 1-.082-1.082v-11.08c0-.303.041-.606.123-.953.083-.302.247-.605.536-.908.288-.26.617-.433.947-.52.329-.086.659-.13.906-.13h11.035v3.896h-7.576c-.165 0-.289 0-.412.043-.124.043-.247.087-.33.173a.525.525 0 0 0-.206.39c-.041.173-.041.303-.041.39v1.211h8.359v3.506h-8.359v1.731c0 .173.041.303.083.39.041.086.082.173.164.216.124.13.247.173.453.217h7.989v3.938h-11.118v.087zm28.083 0h-4.941v-6.406H169.5v6.406h-4.942V18.485h4.942v5.713h5.559v-5.713H180v16.144zM15.623.273C13.283 7.581 0 19.802 0 25.871c0 7.431 6.976 13.418 15.623 13.459 8.646-.041 15.622-6.028 15.622-13.46 0-6.068-13.283-18.289-15.622-25.597zM7.895 26.16c.292-.248.501-.62.501-1.074 0-.743-.585-1.362-1.295-1.362s-1.295.62-1.295 1.362c0 .743.585 1.363 1.295 1.363.125 0 .293-.042.418-.083l3.133 7.803c-3.55-1.403-6.433-4.293-6.433-8.298 0-2.106 5.806-9.496 7.185-11.271 1.295-1.652 2.798-3.592 4.219-5.657 1.42 2.024 2.924 3.964 4.219 5.657 1.378 1.816 7.184 9.165 7.184 11.27 0 3.964-2.84 6.854-6.349 8.258l3.133-7.68c.083.042.209.042.334.042.71 0 1.295-.62 1.295-1.362 0-.744-.585-1.363-1.295-1.363s-1.295.62-1.295 1.363c0 .454.209.867.585 1.114l-5.64 5.656-1.92-7.679c.5-.165.876-.702.876-1.28 0-.743-.584-1.362-1.294-1.362-.71 0-1.295.62-1.295 1.362 0 .578.376 1.074.877 1.28l-1.88 7.143-5.263-5.202z" fill="#fff"/></svg>