<svg width="31" height="31" fill="none" xmlns="http://www.w3.org/2000/svg"><g clip-path="url(#prefix__a)"><path d="M30.724 22.433c-.084-.14-.599-1.26-3.08-3.562-2.596-2.41-2.247-2.019.88-6.187 1.905-2.538 2.667-4.088 2.428-4.75-.226-.632-1.627-.466-1.627-.466l-4.658.027s-.345-.046-.603.107c-.25.151-.41.5-.41.5s-.739 1.965-1.723 3.635c-2.076 3.524-2.907 3.71-3.246 3.492-.788-.51-.59-2.05-.59-3.143 0-3.416.517-4.84-1.01-5.209-.508-.122-.88-.203-2.176-.217-1.663-.017-3.072.006-3.868.396-.53.26-.94.839-.69.872.308.04 1.006.187 1.376.691.479.65.461 2.11.461 2.11s.275 4.021-.641 4.52c-.63.344-1.492-.356-3.343-3.555-.947-1.637-1.664-3.449-1.664-3.449s-.138-.337-.384-.517c-.298-.219-.717-.289-.717-.289l-4.43.027s-.664.02-.908.308c-.217.258-.017.79-.017.79s3.468 8.112 7.394 12.202c3.602 3.75 7.69 3.504 7.69 3.504h1.853s.56-.062.845-.37c.263-.283.253-.814.253-.814s-.037-2.486 1.118-2.852c1.138-.36 2.599 2.402 4.147 3.466 1.17.804 2.06.628 2.06.628l4.14-.058s2.167-.134 1.14-1.837z" fill="#fff"/></g><defs><clipPath id="prefix__a"><path fill="#fff" d="M0 0h31v31H0z"/></clipPath></defs></svg>