<svg width="65" height="65" fill="none" xmlns="http://www.w3.org/2000/svg"><path d="M46.171 9.856a8.442 8.442 0 1 0 1.093 16.849 8.442 8.442 0 0 0-1.093-16.85zm7.07 8.85a6.535 6.535 0 0 1-6.097 6.098 6.54 6.54 0 0 1-6.95-6.95 6.535 6.535 0 0 1 6.097-6.098 6.542 6.542 0 0 1 6.95 6.95z" fill="#9898A7"/><path d="M61.253 13.795c-1.372-.005-2.051-1.657-1.081-2.627a3.713 3.713 0 0 0 1.095-2.643c0-.998-.389-1.937-1.095-2.642l-1.1-1.1c-1.452-1.453-3.757-1.432-5.247.047-.974.967-2.622.28-2.622-1.093A3.742 3.742 0 0 0 47.465 0H45.97a3.742 3.742 0 0 0-3.737 3.737c0 1.374-1.653 2.062-2.627 1.088a3.713 3.713 0 0 0-2.643-1.094c-.998 0-1.937.388-2.642 1.094l-1.058 1.058c-.29.29-.526.622-.705.982a8.957 8.957 0 0 0-4.7-1.327h-8.313a4.431 4.431 0 0 0-4.18 2.967.316.316 0 0 1-.301.206 4.46 4.46 0 0 0-4.455 4.455.952.952 0 0 0 1.904 0 2.554 2.554 0 0 1 2.55-2.55c.947 0 1.79-.596 2.1-1.483a2.525 2.525 0 0 1 2.382-1.69h8.313a7.116 7.116 0 0 1 7.108 7.107v5.15c-1.474.414-1.671.967-2.797 1.026v-4.312c0-2.19-1.781-3.97-3.97-3.97h-.037c-1.63 0-2.296.677-4.236.677h-.373c-1.92 0-2.619-.678-4.236-.678h-.036a3.975 3.975 0 0 0-3.971 3.97v3.712c-.901-.38-2.002-.525-2.797-.578V17.67a.952.952 0 0 0-1.904 0v2.297a2.854 2.854 0 0 0-1.031 2.2v2.121a2.87 2.87 0 0 0 2.696 2.861c.285 2.76 1.571 5.288 3.608 7.042.309.265.624.512.946.743v4.004a.756.756 0 0 1-.657.747c-2.79.362-7.885 1.155-10.68 2.4a9.26 9.26 0 0 0-5.488 8.45v9.468A5.002 5.002 0 0 0 4.999 65h37.48a5.002 5.002 0 0 0 4.997-4.996v-3.216a.952.952 0 0 0-1.904 0v3.216a3.096 3.096 0 0 1-3.092 3.092h-2.447v-5.192a.952.952 0 1 0-1.904 0v5.192h-9.896L26.476 50.11l.891-1.252a2.706 2.706 0 0 0 2.472-.56l4.28-3.674a2.677 2.677 0 0 0 .919-2.436c2.195.397 4.629.949 6.176 1.637a7.353 7.353 0 0 1 4.358 6.712v1.802a.952.952 0 1 0 1.904 0v-1.802a9.26 9.26 0 0 0-5.488-8.451c-2.795-1.245-7.89-2.038-10.68-2.4a.756.756 0 0 1-.657-.747v-4.004c.322-.231.638-.478.946-.743a10.346 10.346 0 0 0 2.312-2.87l.412.412a3.735 3.735 0 0 0 5.285 0c.971-.971 2.627-.29 2.627 1.088a3.742 3.742 0 0 0 3.737 3.737h1.495a3.741 3.741 0 0 0 3.738-3.737c0-1.374 1.653-2.062 2.626-1.088a3.713 3.713 0 0 0 2.643 1.095c.998 0 1.937-.39 2.643-1.095l1.057-1.057a3.742 3.742 0 0 0 0-5.286c-.97-.97-.29-2.621 1.081-2.626 2.1-.008 3.745-1.623 3.745-3.677v-1.616c0-2.054-1.645-3.67-3.745-3.677zM24.991 48.913h-2.503l-.73-1.025 1.982-1.427 1.98 1.427-.73 1.025zm-5.113-2.017a.804.804 0 0 1-.997-.043L14.6 43.18a.795.795 0 0 1-.25-.837.796.796 0 0 1 .646-.572c.4-.058.764-.11 1.08-.152l5.956 3.725-2.155 1.552zM1.907 60.004v-9.467a7.354 7.354 0 0 1 4.358-6.711c1.547-.69 3.981-1.24 6.176-1.638-.133.913.202 1.82.92 2.436l4.28 3.674a2.705 2.705 0 0 0 2.47.56l.892 1.252-1.757 12.986H9.35v-5.192a.952.952 0 0 0-1.904 0v5.192H5a3.096 3.096 0 0 1-3.092-3.092zm19.26 3.092 1.662-12.28h1.82l1.662 12.28h-5.143zm11.96-20.753a.795.795 0 0 1-.249.836l-4.28 3.674a.805.805 0 0 1-.997.043l-2.155-1.552 5.955-3.725c.316.043.682.093 1.08.152a.797.797 0 0 1 .646.572zm-3.756-1.7-5.632 3.522-5.631-3.522c.39-.465.624-1.06.624-1.704v-2.88a11.606 11.606 0 0 0 10.015 0v2.88c0 .644.234 1.24.624 1.704zm.984-7.894c-3.932 3.385-9.299 3.386-13.23 0-1.855-1.597-2.95-3.99-3.006-6.566a.952.952 0 0 0-.951-.932h-.724a.963.963 0 0 1-.962-.962v-2.12c0-.294.134-.564.357-.745 1.095.025 2.693.246 3.167.713a1.296 1.296 0 0 0 2.208-.922v-4.801c0-1.14.927-2.067 2.067-2.067 1.75.129 2.16.679 4.272.679h.373c2.185 0 3.012-.679 4.236-.679h.036c1.14 0 2.067.927 2.067 2.067v4.454c0 .974.792 1.766 1.77 1.766 1.801 0 2.288-.837 3.668-1.156a.956.956 0 0 1 .294.69v2.121c0 .53-.431.962-.962.962h-.724a.952.952 0 0 0-.951.932c-.056 2.576-1.151 4.97-3.005 6.566zm32.738-13.661c0 .99-.811 1.769-1.847 1.773-3.063.011-4.584 3.713-2.42 5.877a1.835 1.835 0 0 1 0 2.593l-1.058 1.057a1.821 1.821 0 0 1-1.296.537c-.49 0-.95-.19-1.296-.537-2.169-2.168-5.878-.636-5.878 2.434 0 1.011-.822 1.834-1.833 1.834H45.97a1.835 1.835 0 0 1-1.833-1.834c0-3.067-3.706-4.605-5.877-2.434a1.832 1.832 0 0 1-2.593 0l-.947-.947c.239-.736.404-1.503.486-2.29A2.87 2.87 0 0 0 37.9 24.29v-2.121c0-.864-.384-1.663-1.031-2.2V14.55a8.984 8.984 0 0 0-2.741-6.464c.079-.323.242-.62.48-.858l1.058-1.057a1.821 1.821 0 0 1 1.296-.537c.49 0 .95.19 1.296.537 2.169 2.168 5.877.636 5.877-2.434 0-1.011.823-1.834 1.834-1.834h1.495c1.01 0 1.833.823 1.833 1.834 0 3.064 3.696 4.599 5.867 2.444.736-.73 1.86-.753 2.56-.053l1.1 1.1c.346.347.537.807.537 1.297 0 .49-.19.95-.537 1.296-2.167 2.167-.638 5.866 2.42 5.877 1.036.004 1.848.783 1.848 1.773v1.616z" fill="#9898A7"/></svg>