<svg width="65" height="63" fill="none" xmlns="http://www.w3.org/2000/svg"><path d="M61.95 56.161h-4.543V31.664a.952.952 0 1 0-1.904 0v24.497H41.519V24.215c0-.246.2-.446.446-.446h13.092c.246 0 .445.2.445.446v2.998a.952.952 0 1 0 1.905 0v-2.998a2.352 2.352 0 0 0-2.35-2.35h-5.594v-7.059L60.77 9.31A1.775 1.775 0 0 0 61.775 7.7c0-.69-.385-1.305-1.005-1.607L50.128.92a1.777 1.777 0 0 0-1.73.092c-.526.329-.84.895-.84 1.515v19.338h-5.593a2.352 2.352 0 0 0-2.35 2.35v10.234H26.077a2.352 2.352 0 0 0-2.35 2.35v8.42H10.19a2.352 2.352 0 0 0-2.349 2.35v8.592H3.05A3.053 3.053 0 0 0 0 59.211a3.053 3.053 0 0 0 3.05 3.05h58.9a3.053 3.053 0 0 0 3.05-3.05 3.053 3.053 0 0 0-3.05-3.05zM49.463 2.714l10.258 4.987-10.258 4.988V2.714zM9.744 47.569c0-.245.2-.445.445-.445h13.538v2.523a.952.952 0 1 0 1.905 0V36.799c0-.246.2-.446.445-.446h13.538v19.808H25.632v-2.063a.952.952 0 1 0-1.905 0v2.063H9.744V47.57zM61.95 60.357H3.05a1.147 1.147 0 0 1-1.146-1.146c0-.631.514-1.145 1.146-1.145h58.9c.632 0 1.146.514 1.146 1.145 0 .632-.514 1.146-1.146 1.146z" fill="#9898A7"/></svg>