<svg width="61" height="53" fill="none" xmlns="http://www.w3.org/2000/svg"><path d="M53.86.094a1.016 1.016 0 0 0-1.016 1.015v5.079H8.156V1.109A1.016 1.016 0 0 0 7.141.094a7.118 7.118 0 0 0-7.11 7.11V46.01a6.906 6.906 0 0 0 6.896 6.896h47.146a6.906 6.906 0 0 0 6.896-6.9V7.203a7.118 7.118 0 0 0-7.11-7.11zM2.062 7.204a5.086 5.086 0 0 1 4.062-4.977v36.532a7.1 7.1 0 0 0-4.063 2.065V7.204zM58.937 46.01a4.875 4.875 0 0 1-4.864 4.865H6.927a4.875 4.875 0 0 1-4.864-4.869v-.21A5.084 5.084 0 0 1 7.14 40.72a1.016 1.016 0 0 0 1.015-1.016V8.22h44.688v31.484a1.016 1.016 0 0 0 1.015 1.016 5.084 5.084 0 0 1 5.078 5.078v.213zm0-5.185a7.1 7.1 0 0 0-4.062-2.065V2.227a5.087 5.087 0 0 1 4.063 4.976v33.622z" fill="#9898A7"/><path d="M49.797 14.313H20.344a1.016 1.016 0 0 0-1.016 1.015v7.11h-8.125a1.015 1.015 0 0 0-1.015 1.015v20.313a1.016 1.016 0 0 0 1.015 1.015h24.375a1.016 1.016 0 0 0 1.016-1.015V30.563h7.11a1.016 1.016 0 1 0 0-2.032H25.421a1.016 1.016 0 0 0-1.016 1.016v5.078a1.016 1.016 0 0 0 2.032 0v-4.063h8.125V42.75h-8.126v-4.063a1.016 1.016 0 1 0-2.03 0v4.063H12.218v-8.125h8.125a1.016 1.016 0 0 0 0-2.031h-8.125v-8.125h8.125a1.016 1.016 0 0 0 1.015-1.016v-7.11h13.203v8.126a1.016 1.016 0 0 0 2.032 0v-8.125h5.148a8.133 8.133 0 0 0 7.04 7.039V42.75h-8.126a1.016 1.016 0 0 0 0 2.031h9.14a1.016 1.016 0 0 0 1.017-1.015V15.328a1.015 1.015 0 0 0-1.016-1.015zm-6.002 2.03h4.986v4.988a6.102 6.102 0 0 1-4.986-4.987z" fill="#9898A7"/></svg>