<svg width="59" height="65" fill="none" xmlns="http://www.w3.org/2000/svg"><path d="M57.867 48.942c-1.142-1.68-3.078-2.092-5.18-1.103l-14.65 6.45v-.044a.99.99 0 0 0-.004-.106 5.59 5.59 0 0 0-4.815-4.997l-9.74-1.121c-2.058-.294-3.07-.982-4.977-2.097A18.45 18.45 0 0 0 9.194 43.4h-.607v-.985c0-1.451-1.18-2.631-2.631-2.631H3.104a2.634 2.634 0 0 0-2.631 2.63V60.63c0 1.45 1.18 2.63 2.631 2.63h2.852a2.632 2.632 0 0 0 2.623-2.477l9.535 3.55c1.193.443 2.443.668 3.716.668h13.138c2.014 0 3.978-.567 5.68-1.641l16.43-9.269c1.15-.65 2.158-3.137.79-5.148zm-1.822 3.544-16.353 9.226a8.735 8.735 0 0 1-4.725 1.384H21.83a8.719 8.719 0 0 1-3.052-.55L8.587 58.753v-6.908a.952.952 0 1 0-1.904 0v8.784c0 .4-.326.727-.727.727H3.104a.728.728 0 0 1-.727-.727V42.416c0-.4.326-.727.727-.727h2.852c.4 0 .727.326.727.727v4.977a.952.952 0 1 0 1.904 0v-2.087h.608c2.93 0 5.816.782 8.345 2.261 2.021 1.182 3.249 1.996 5.683 2.34a.513.513 0 0 0 .024.004l9.74 1.122a3.69 3.69 0 0 1 3.146 3.244l-.006.528c-5.66-.066-7.812.189-11.433-.34l-1.686-.246a.952.952 0 0 0-.275 1.884l1.686.246c3.847.562 6.066.288 12.648.36a.98.98 0 0 0 .384-.08l16.016-7.052.023-.011c.862-.408 2.049-.661 2.803.447a1.94 1.94 0 0 1-.248 2.474z" fill="#9898A7"/><path d="M12.265 22.03a2.248 2.248 0 0 1 .689 2.572c-.96 2.48.619 5.206 3.24 5.613.642.1 1.188.463 1.53.977l-4.459 8.645c-.267.52-.21 1.128.15 1.588.359.46.935.663 1.503.529l4.864-1.145 1.886 4.626a1.464 1.464 0 0 0 1.372.92c.556 0 1.054-.302 1.311-.8l4.173-8.092c.647.155 1.31.155 1.958 0l4.173 8.091a1.463 1.463 0 0 0 1.38.8 1.464 1.464 0 0 0 1.303-.92l1.886-4.625 4.864 1.145a1.463 1.463 0 0 0 1.504-.53c.36-.46.416-1.068.149-1.587l-4.459-8.645a2.247 2.247 0 0 1 1.53-.977 4.16 4.16 0 0 0 3.24-5.613 2.248 2.248 0 0 1 .69-2.572 4.16 4.16 0 0 0 0-6.481 2.248 2.248 0 0 1-.69-2.572 4.16 4.16 0 0 0-3.24-5.613 2.248 2.248 0 0 1-1.883-1.883 4.16 4.16 0 0 0-5.613-3.24c-.92.356-1.954.079-2.572-.69a4.16 4.16 0 0 0-6.482 0 2.248 2.248 0 0 1-2.571.69 4.16 4.16 0 0 0-5.613 3.24 2.248 2.248 0 0 1-1.883 1.883 4.16 4.16 0 0 0-3.24 5.613c.355.92.079 1.954-.69 2.572a4.16 4.16 0 0 0 0 6.481zm10.817 21.83-1.675-4.108a1.471 1.471 0 0 0-1.708-.88l-4.318 1.016 3.241-6.283a4.162 4.162 0 0 0 5.068 1.734 2.247 2.247 0 0 1 2.572.689c.17.212.36.403.563.574l-3.743 7.258zm16.224-4.989a1.472 1.472 0 0 0-1.708.881l-1.675 4.108-3.743-7.258c.203-.171.393-.362.563-.574a2.25 2.25 0 0 1 2.572-.69 4.162 4.162 0 0 0 5.068-1.733l3.24 6.283-4.317-1.017zM13.459 17.032a4.146 4.146 0 0 0 1.27-4.742 2.256 2.256 0 0 1 1.758-3.044 4.146 4.146 0 0 0 3.472-3.472 2.256 2.256 0 0 1 3.044-1.757 4.145 4.145 0 0 0 4.742-1.271 2.256 2.256 0 0 1 3.515 0 4.146 4.146 0 0 0 4.743 1.27 2.256 2.256 0 0 1 3.044 1.758 4.146 4.146 0 0 0 3.472 3.472 2.256 2.256 0 0 1 1.757 3.044 4.146 4.146 0 0 0 1.27 4.742 2.256 2.256 0 0 1 0 3.515 4.145 4.145 0 0 0-1.27 4.743 2.256 2.256 0 0 1-1.757 3.044 4.146 4.146 0 0 0-3.472 3.472 2.256 2.256 0 0 1-3.044 1.757 4.147 4.147 0 0 0-4.743 1.27 2.256 2.256 0 0 1-3.515 0 4.146 4.146 0 0 0-4.742-1.27 2.256 2.256 0 0 1-3.044-1.757 4.146 4.146 0 0 0-3.472-3.472 2.256 2.256 0 0 1-1.757-3.044 4.146 4.146 0 0 0-1.271-4.743 2.256 2.256 0 0 1 0-3.515z" fill="#9898A7"/><path d="M17.503 20.08a.952.952 0 0 0-.761 1.11c1.147 6.132 6.514 10.582 12.76 10.582 7.16 0 12.983-5.823 12.983-12.982 0-7.159-5.824-12.983-12.982-12.983-6.247 0-11.613 4.45-12.76 10.58a.952.952 0 1 0 1.871.35c.98-5.23 5.558-9.025 10.889-9.025 6.108 0 11.078 4.97 11.078 11.078s-4.97 11.078-11.078 11.078c-5.331 0-9.91-3.796-10.89-9.027a.953.953 0 0 0-1.11-.762z" fill="#9898A7"/><path d="m36.514 15.251-4.235-.188-1.487-3.97c-.446-1.19-2.132-1.19-2.578 0l-1.487 3.97-4.236.188c-1.268.056-1.792 1.659-.796 2.452l3.316 2.641-1.13 4.086c-.34 1.226 1.025 2.216 2.085 1.515l3.537-2.337 3.536 2.338c1.057.698 2.426-.286 2.086-1.516l-1.13-4.086 3.316-2.641c.994-.793.472-2.396-.797-2.452zm-3.979 3.82a1.374 1.374 0 0 0-.469 1.444l.848 3.065-2.652-1.753a1.375 1.375 0 0 0-1.518 0L26.09 23.58l.848-3.064a1.374 1.374 0 0 0-.47-1.444l-2.486-1.98 3.177-.142a1.374 1.374 0 0 0 1.227-.892l1.116-2.977 1.115 2.977c.194.518.676.868 1.228.892l3.176.141-2.487 1.98z" fill="#9898A7"/></svg>