<svg width="65" height="55" fill="none" xmlns="http://www.w3.org/2000/svg"><path d="M53.256 20.956H11.743a.953.953 0 0 0 0 1.906h41.513a.953.953 0 1 0 0-1.906zM38.471 25.763H11.743a.953.953 0 1 0 0 1.906h26.728a.953.953 0 0 0 0-1.906zM35.422 32.475a.953.953 0 0 0 0-1.905H11.743a.953.953 0 1 0 0 1.905h23.679zM39.447 16.214A2.055 2.055 0 0 0 41.5 14.16v-1.675a2.055 2.055 0 0 0-2.053-2.053H25.552a2.055 2.055 0 0 0-2.053 2.053v1.675c0 1.132.921 2.053 2.053 2.053h13.895zM25.405 14.16v-1.675c0-.082.066-.148.147-.148h13.896c.08 0 .147.066.147.148v1.675a.147.147 0 0 1-.147.147H25.552a.147.147 0 0 1-.147-.147z" fill="#9898A7"/><path d="M35.877 39.823H11.93a6.944 6.944 0 0 0-4.981-5.07v-8.88a.953.953 0 1 0-1.906 0v8.912c0 .852.57 1.593 1.386 1.802a5.043 5.043 0 0 1 3.658 3.723 1.85 1.85 0 0 0 1.81 1.419h23.98a.953.953 0 0 0 0-1.906zM58.571 10.704a5.043 5.043 0 0 1-3.659-3.723 1.85 1.85 0 0 0-1.81-1.419H11.898a1.85 1.85 0 0 0-1.81 1.42 5.043 5.043 0 0 1-3.659 3.722c-.816.21-1.386.95-1.386 1.802v8.912a.953.953 0 1 0 1.906 0v-8.88a6.944 6.944 0 0 0 4.982-5.07h41.138a6.944 6.944 0 0 0 4.982 5.07v16.92a.953.953 0 1 0 1.905 0V12.506c0-.851-.57-1.592-1.385-1.802z" fill="#9898A7"/><path d="M60.61.638H4.39C1.97.638 0 2.608 0 5.028v37.235c0 2.421 1.97 4.39 4.39 4.39h38.431l-1.562 4.089c-.422 1.102.586 2.219 1.727 1.911l1.756-.474.994 1.527c.645.99 2.14.83 2.562-.273l1.333-3.487 1.333 3.487c.422 1.104 1.917 1.262 2.562.273l.994-1.527 1.756.474c1.14.308 2.149-.808 1.727-1.912l-1.563-4.087h4.17c2.42 0 4.39-1.97 4.39-4.39V5.027c0-2.42-1.97-4.39-4.39-4.39zM41.457 35.563a.698.698 0 0 1 .4-1.227 2.605 2.605 0 0 0 2.324-3.2.698.698 0 0 1 1.044-.758 2.605 2.605 0 0 0 3.76-1.222.698.698 0 0 1 1.291 0 2.605 2.605 0 0 0 3.761 1.222.698.698 0 0 1 1.044.759 2.605 2.605 0 0 0 2.325 3.2c.62.05.872.82.398 1.226a2.605 2.605 0 0 0 0 3.955.698.698 0 0 1-.398 1.227 2.605 2.605 0 0 0-2.325 3.2.698.698 0 0 1-1.044.758 2.605 2.605 0 0 0-3.76 1.222.698.698 0 0 1-1.291 0 2.606 2.606 0 0 0-3.761-1.222.698.698 0 0 1-1.044-.758 2.605 2.605 0 0 0-2.325-3.2.698.698 0 0 1-.399-1.227 2.605 2.605 0 0 0 0-3.955zM46.84 51.91l-.683-1.05a1.443 1.443 0 0 0-1.588-.607l-1.208.326 1.476-3.86c.473.003.948-.124 1.38-.388a.699.699 0 0 1 1.01.328 2.582 2.582 0 0 0 1.132 1.28l-1.519 3.97zm7.853-1.657a1.442 1.442 0 0 0-1.588.607l-.683 1.05-1.519-3.971a2.584 2.584 0 0 0 1.132-1.28.698.698 0 0 1 1.01-.328 2.6 2.6 0 0 0 1.38.388l1.475 3.86-1.207-.326zm8.401-7.989a2.487 2.487 0 0 1-2.484 2.485h-3.678a2.62 2.62 0 0 0 .003-1.244.69.69 0 0 1 .115-.573.69.69 0 0 1 .509-.286c2.308-.186 3.246-3.065 1.486-4.574a.699.699 0 0 1 0-1.06c1.757-1.508.824-4.388-1.486-4.574a.699.699 0 0 1-.624-.86c.536-2.25-1.911-4.033-3.89-2.826a.699.699 0 0 1-1.01-.328c-.89-2.137-3.917-2.14-4.809 0a.699.699 0 0 1-1.009.329c-1.977-1.208-4.427.573-3.89 2.826a.699.699 0 0 1-.624.859c-2.308.186-3.246 3.064-1.486 4.573a.699.699 0 0 1 0 1.061c-1.758 1.508-.825 4.388 1.486 4.574a.699.699 0 0 1 .624.858c-.102.425-.096.849.003 1.245H4.39a2.487 2.487 0 0 1-2.484-2.485V5.028A2.487 2.487 0 0 1 4.39 2.544h56.22a2.488 2.488 0 0 1 2.484 2.484v37.235z" fill="#9898A7"/><path d="M49.63 43.12a5.585 5.585 0 0 0 5.58-5.58 5.585 5.585 0 0 0-5.58-5.578 5.585 5.585 0 0 0-5.578 5.579 5.585 5.585 0 0 0 5.579 5.578zm0-9.252a3.677 3.677 0 0 1 3.674 3.673 3.677 3.677 0 0 1-3.673 3.673 3.677 3.677 0 0 1-3.673-3.673 3.677 3.677 0 0 1 3.673-3.673z" fill="#9898A7"/></svg>