<svg width="65" height="65" fill="none" xmlns="http://www.w3.org/2000/svg"><path d="M35.61 10.093h-6.22c-4.009 0-4.017 6.22 0 6.22h6.22c4.009 0 4.017-6.22 0-6.22zm0 4.316h-6.22c-1.552 0-1.555-2.412 0-2.412h6.22c1.552 0 1.555 2.412 0 2.412z" fill="#9898A7"/><path d="M55.288 51.162h-.976c-.364-6.246-4.998-11.364-11.018-12.472a16.3 16.3 0 0 0 5.367-9.995 4.196 4.196 0 0 0 3.485-4.13 4.196 4.196 0 0 0-3.333-4.1v-4.151C48.813 7.318 41.495 0 32.5 0S16.186 7.318 16.186 16.314v4.15a4.196 4.196 0 0 0-3.332 4.101 4.195 4.195 0 0 0 3.482 4.129 16.13 16.13 0 0 0 1.335 4.585c.511 1.11 2.242.316 1.73-.796a14.291 14.291 0 0 1-1.31-6.013v-2.585a6.708 6.708 0 0 0 4.824 2.045h19.17c1.89 0 3.6-.785 4.824-2.045v2.585c0 7.945-6.464 14.409-14.409 14.409a14.461 14.461 0 0 1-10.54-4.585c-.835-.894-2.229.403-1.394 1.299.36.386.739.752 1.132 1.098-6.017 1.112-10.646 6.228-11.01 12.471h-.976a.952.952 0 0 0-.952.952v3.428c0 .526.426.952.952.952h.952v7.554c0 .526.426.952.952.952H37.96c1.222 0 1.224-1.904 0-1.904h-4.443V47.734h5.903c.423 0 .795-.279.914-.685l1.925-6.592c5.466.667 9.768 5.156 10.146 10.705h-6.257a.952.952 0 0 0-.952.952v10.982H43.8c-1.223 0-1.224 1.904 0 1.904h9.585a.952.952 0 0 0 .952-.952v-7.554h.952a.952.952 0 0 0 .952-.952v-3.428a.952.952 0 0 0-.952-.952zm-5.046-26.597c0 .958-.593 1.78-1.431 2.118l.002-.213v-4.021a2.288 2.288 0 0 1 1.429 2.116zm-35.484 0c0-.957.592-1.777 1.428-2.117v4.022l.003.213a2.288 2.288 0 0 1-1.43-2.118zm27.327-.54h-19.17a4.833 4.833 0 0 1-4.73-3.871h28.63a4.833 4.833 0 0 1-4.73 3.872zM18.091 18.25v-1.936c0-7.946 6.464-14.41 14.409-14.41s14.41 6.464 14.41 14.41v1.936H18.09zm18.588 23.99-4.147 3.3-4.126-3.283a16.245 16.245 0 0 0 8.273-.017zm-6.841 3.59h-3.48l-1.053-3.607 4.533 3.607zm-7.035-5.38 1.928 6.6c.118.405.49.684.913.684h5.904v15.362H19.805V52.114a.952.952 0 0 0-.953-.952h-6.256c.38-5.57 4.712-10.071 10.207-10.712zM10.664 53.066H17.9v1.524h-7.236v-1.524zm1.904 10.03v-6.602H17.9v6.602h-5.332zM38.705 45.83h-3.48l4.533-3.607-1.053 3.607zm15.63 8.76H47.1v-1.524h7.236v1.524zm-1.903 8.506H47.1v-6.602h5.332v6.602z" fill="#9898A7"/><path d="M41.577 53.193h-4.57a.952.952 0 1 0 0 1.905h4.57a.952.952 0 1 0 0-1.905z" fill="#9898A7"/></svg>