<svg width="38" height="38" fill="none" xmlns="http://www.w3.org/2000/svg"><path d="M10.637 36H5.455a3.483 3.483 0 0 1-2.443-.996A3.373 3.373 0 0 1 2 32.6V20.7c0-.902.364-1.767 1.012-2.404a3.483 3.483 0 0 1 2.443-.996h5.182m12.092-3.4V7.1a5.06 5.06 0 0 0-1.518-3.606A5.225 5.225 0 0 0 17.547 2l-6.91 15.3V36h19.485a3.489 3.489 0 0 0 2.277-.81 3.387 3.387 0 0 0 1.178-2.08l2.384-15.3a3.35 3.35 0 0 0-.098-1.458 3.384 3.384 0 0 0-.71-1.283 3.451 3.451 0 0 0-1.193-.871 3.502 3.502 0 0 0-1.454-.298H22.73z" stroke="#1E489B" stroke-width="2.3" stroke-linecap="round" stroke-linejoin="round"/></svg>