<svg width="80" height="80" fill="none" xmlns="http://www.w3.org/2000/svg"><path d="M73.333 56.4v10a6.668 6.668 0 0 1-7.267 6.667A65.967 65.967 0 0 1 37.3 62.834a65 65 0 0 1-20-20 65.967 65.967 0 0 1-10.234-28.9A6.666 6.666 0 0 1 13.7 6.667h10a6.666 6.666 0 0 1 6.666 5.734 42.794 42.794 0 0 0 2.334 9.366 6.667 6.667 0 0 1-1.5 7.034l-4.234 4.233a53.334 53.334 0 0 0 20 20l4.234-4.233a6.666 6.666 0 0 1 7.033-1.5 42.803 42.803 0 0 0 9.367 2.333 6.667 6.667 0 0 1 5.733 6.767z" stroke="#1E489B" stroke-width="2" stroke-linecap="round" stroke-linejoin="round"/></svg>