<svg xmlns="http://www.w3.org/2000/svg" width="149" height="33" fill="#24242e"  fill-rule="evenodd" xmlns:v="https://vecta.io/nano"><path d="M35.664 24.14c.034.107.068.179.136.215.034.036.068.072.102.072s.068-.036.102-.072a.55.55 0 0 0 .136-.215l2.965-9.064h4.397l-4.397 11.358c-.102.287-.239.573-.409.824s-.375.502-.614.681c-.239.215-.545.358-.886.466a4.38 4.38 0 0 1-1.295.179 4.38 4.38 0 0 1-1.295-.179 3.03 3.03 0 0 1-.886-.466c-.238-.179-.443-.43-.614-.681a3.64 3.64 0 0 1-.409-.824L28.3 15.077h4.397l2.966 9.065zm8.215 4.299V15.075h4.09v13.364h-4.09zm12.953-7.201l.75-.036c.239-.036.443-.107.614-.322.204-.251.341-.645.341-1.146 0-.179-.034-.358-.068-.537s-.136-.358-.307-.502-.375-.251-.579-.251c-.239-.036-.443-.036-.682-.036h-2.284c-.17 0-.307.036-.375.072-.102.072-.17.108-.205.215a1.79 1.79 0 0 0-.102.251c0 .072-.034.179-.034.251v2.078h2.931v-.036zm-7.056 7.201V17.583c0-.287.034-.573.102-.931s.204-.645.409-.896c.136-.179.341-.322.614-.466s.648-.215 1.057-.215h7.022a6.61 6.61 0 0 1 1.466.179c.443.107.852.358 1.227.788.307.323.545.788.682 1.361.17.573.239 1.326.239 2.293l-.034.896-.136 1.182c-.068.394-.205.788-.341 1.182s-.375.681-.614.931c-.307.251-.648.466-1.091.573-.409.108-.818.179-1.159.179h-5.352v3.869h-4.09v-.072zm18.1-3.332h7.056c.307 0 .511-.036.579-.143.068-.072.136-.179.136-.287 0-.215-.068-.358-.239-.466l-.545-.215-4.908-1.433c-.375-.108-.682-.251-.92-.466a4.22 4.22 0 0 1-.545-.573c-.307-.43-.477-.896-.58-1.433a12.15 12.15 0 0 1-.102-1.541c0-.43.034-.86.102-1.361.068-.466.307-.931.682-1.326.204-.215.477-.394.818-.573s.784-.251 1.329-.251h8.385v3.332h-6.476c-.239 0-.409 0-.477.036-.068 0-.136.036-.17.072-.136.072-.205.215-.205.358 0 .215.102.358.341.466a5.68 5.68 0 0 0 .716.251l4.295 1.218a4.3 4.3 0 0 1 .92.358c.341.143.614.358.852.609a3 3 0 0 1 .477.681c.136.251.205.537.273.788.068.287.102.537.102.824.034.251.034.502.034.752 0 .394-.034.824-.102 1.326-.068.466-.239.932-.511 1.326a2.39 2.39 0 0 1-.579.609c-.204.143-.409.251-.648.322a2.28 2.28 0 0 1-.682.108c-.239 0-.443.036-.648.036H67.91v-3.404h-.034zm17.998-2.472h2.625l-1.159-3.368a.28.28 0 0 1-.068-.179c-.034-.072-.068-.108-.068-.108-.034 0-.068.036-.068.108-.034.072-.068.143-.068.179l-1.193 3.368zm-1.602-6.091l-4.704 11.895h4.329l.989-2.759h4.568l.989 2.759h4.329l-4.704-11.895c-.136-.358-.307-.645-.545-.86-.204-.215-.443-.394-.682-.502s-.511-.179-.784-.215-.579-.036-.886-.036c-.511 0-.92.036-1.227.107s-.58.179-.818.322c-.205.143-.409.322-.511.502l-.341.681zm24.746 9.638c0 .108-.034.323-.068.573a1.6 1.6 0 0 1-.341.788c-.17.251-.443.502-.818.717s-.886.322-1.568.322c-.239 0-.477 0-.716-.036s-.477-.072-.716-.179c-.238-.072-.477-.215-.681-.394-.239-.179-.444-.43-.614-.716l-4.602-6.807a.94.94 0 0 0-.17-.215c-.068-.072-.136-.108-.17-.108s-.068 0-.136.036-.102.143-.102.322v7.918h-3.17V17.297c0-.43.068-.788.239-1.111.17-.287.375-.537.648-.717a2.68 2.68 0 0 1 .92-.394 5.02 5.02 0 0 1 1.057-.107 3.94 3.94 0 0 1 .614.036l.716.143c.239.072.477.215.716.358.239.179.443.394.648.681l4.602 6.843a.94.94 0 0 0 .17.215c.068.072.102.108.205.108s.17-.036.17-.108c.034-.072.034-.143.034-.215v-7.954h3.17v11.107h-.034zm5.249 2.257V18.407h-4.533v-3.332h13.157v3.332h-4.533v10.032h-4.091zm11.487 0a5.32 5.32 0 0 1-.784-.072c-.272-.036-.511-.179-.75-.394-.306-.251-.443-.502-.511-.788l-.068-.896v-9.172a3.35 3.35 0 0 1 .102-.788c.068-.251.205-.502.443-.752a1.91 1.91 0 0 1 .784-.43 3.12 3.12 0 0 1 .75-.107h9.135v3.224h-6.272c-.136 0-.238 0-.34.036s-.205.072-.273.143c-.102.072-.171.215-.171.322-.034.143-.034.251-.034.323v1.003h6.92v2.902h-6.92v1.433a.73.73 0 0 0 .069.322c.034.072.068.143.136.179.102.107.204.143.375.179h6.613v3.26h-9.204v.072zm23.247 0h-4.09v-5.302h-4.602v5.302h-4.09V15.075h4.09v4.729h4.602v-4.729H149v13.364zM12.932 0C10.996 6.049 0 16.165 0 21.189c0 6.152 5.774 11.107 12.932 11.141 7.158-.034 12.932-4.99 12.932-11.141 0-5.024-10.996-15.14-12.932-21.189zM6.535 21.428c.242-.205.415-.513.415-.889 0-.615-.484-1.128-1.072-1.128s-1.072.513-1.072 1.128.484 1.128 1.072 1.128a1.25 1.25 0 0 0 .346-.068l2.593 6.459c-2.939-1.162-5.325-3.554-5.325-6.869 0-1.743 4.806-7.86 5.947-9.33 1.072-1.367 2.317-2.973 3.492-4.682 1.176 1.675 2.42 3.281 3.492 4.682 1.141 1.504 5.947 7.587 5.947 9.33 0 3.281-2.351 5.673-5.256 6.835l2.593-6.357c.069.034.173.034.277.034.588 0 1.072-.513 1.072-1.128s-.484-1.128-1.072-1.128-1.072.513-1.072 1.128c0 .376.173.718.484.923l-4.668 4.682-1.591-6.357c.415-.137.726-.581.726-1.059 0-.615-.484-1.128-1.072-1.128s-1.072.513-1.072 1.128a1.16 1.16 0 0 0 .726 1.059l-1.556 5.912-4.357-4.306z"/></svg>