<svg width="136" height="29" fill="none" xmlns="http://www.w3.org/2000/svg"><path fill-rule="evenodd" clip-rule="evenodd" d="M36.251 8.069c.03.094.06.157.12.188.03.031.06.063.09.063s.059-.032.089-.063a.484.484 0 0 0 .12-.188L39.267.126h3.853l-3.853 9.952c-.09.251-.21.502-.359.722-.149.22-.328.44-.537.596-.21.189-.478.314-.777.409a3.838 3.838 0 0 1-1.135.157c-.448 0-.836-.063-1.135-.157a2.65 2.65 0 0 1-.776-.409 2.504 2.504 0 0 1-.538-.596 3.223 3.223 0 0 1-.358-.722L29.799.126h3.854l2.598 7.943zm7.199 3.767V.126h3.584v11.71H43.45zm11.35-6.31c.209 0 .448 0 .657-.032.209-.031.388-.094.537-.282.18-.22.3-.566.3-1.005 0-.157-.03-.314-.06-.471a.769.769 0 0 0-.27-.44c-.149-.125-.328-.22-.507-.22-.21-.03-.389-.03-.598-.03h-2a.765.765 0 0 0-.33.062c-.089.063-.149.094-.179.188-.03.063-.06.126-.09.22 0 .063-.029.157-.029.22v1.821H54.8v-.031zm-6.183 6.31V2.323c0-.25.03-.502.09-.816.06-.314.179-.565.358-.785.12-.157.299-.282.538-.408.239-.126.567-.188.925-.188h6.153c.449 0 .867.062 1.285.157.388.094.746.314 1.075.69.269.283.478.691.598 1.193.149.503.208 1.162.208 2.01 0 .188 0 .47-.03.784-.03.314-.06.66-.119 1.037-.06.345-.179.69-.298 1.036-.12.345-.33.596-.538.816-.269.22-.568.408-.956.502a4.197 4.197 0 0 1-1.015.157H52.2v3.39h-3.584v-.062zm15.86-2.92h6.183c.269 0 .448-.031.508-.125.06-.063.12-.157.12-.251 0-.189-.06-.314-.21-.409a8.01 8.01 0 0 0-.478-.188l-4.3-1.256c-.33-.094-.598-.22-.807-.408a3.681 3.681 0 0 1-.478-.502c-.269-.377-.418-.785-.508-1.256-.06-.471-.09-.91-.09-1.35 0-.377.03-.754.09-1.193.06-.408.269-.816.597-1.162.18-.188.419-.345.717-.502.299-.157.687-.22 1.165-.22h7.348v2.92h-5.675c-.21 0-.359 0-.418.031-.06 0-.12.032-.15.063a.348.348 0 0 0-.179.314c0 .188.09.314.299.408.209.094.418.157.627.22l3.764 1.067c.239.063.507.157.806.314.299.126.538.314.747.534.179.188.298.377.418.597.12.22.18.47.239.69.06.251.09.471.09.722.03.22.03.44.03.66 0 .345-.03.722-.09 1.161-.06.409-.21.817-.448 1.162-.15.22-.329.408-.508.534a1.94 1.94 0 0 1-.568.282c-.209.063-.388.094-.597.094-.21 0-.388.032-.568.032h-7.646V8.916h-.03zM80.248 6.75h2.3l-1.016-2.951a.247.247 0 0 1-.06-.157c-.03-.063-.06-.094-.06-.094-.029 0-.059.031-.059.094-.03.063-.06.125-.06.157L80.248 6.75zm-1.404-5.337-4.122 10.423h3.794l.866-2.417h4.002l.866 2.417h3.794L83.922 1.413c-.12-.314-.269-.565-.478-.754a1.975 1.975 0 0 0-.597-.44 2.484 2.484 0 0 0-.687-.188A6.183 6.183 0 0 0 81.383 0c-.448 0-.806.031-1.075.094a2.475 2.475 0 0 0-.717.283c-.18.125-.359.282-.448.44-.09.188-.21.376-.299.596zm21.685 8.445c0 .094-.03.283-.06.502a1.4 1.4 0 0 1-.298.691c-.15.22-.389.44-.717.628-.329.188-.777.283-1.374.283-.21 0-.418 0-.627-.032-.21-.031-.419-.063-.628-.157a1.662 1.662 0 0 1-.597-.345 2.154 2.154 0 0 1-.538-.628l-4.032-5.965a.824.824 0 0 0-.15-.189c-.06-.062-.119-.094-.149-.094s-.06 0-.12.032c-.059.031-.089.125-.089.282v6.939h-2.778V2.072c0-.377.06-.69.21-.973.149-.251.328-.471.567-.628a2.35 2.35 0 0 1 .806-.345c.3-.063.598-.095.926-.095.15 0 .329 0 .538.032.209.031.418.063.627.125.21.063.418.189.627.314.21.157.389.346.568.597l4.032 5.996c.03.063.09.126.15.189.06.062.09.094.179.094.09 0 .15-.032.15-.094.029-.063.029-.126.029-.189V.125h2.778v9.733h-.03zm4.6 1.978v-8.79h-3.973V.125h11.53v2.92h-3.973v8.79h-3.584zm10.066 0c-.239 0-.478-.031-.687-.063-.239-.031-.448-.157-.658-.345-.268-.22-.388-.44-.448-.69-.029-.252-.059-.503-.059-.786V1.915c0-.22.03-.44.089-.69.06-.22.18-.44.389-.66.209-.188.448-.314.687-.377.239-.062.477-.094.657-.094h8.005V2.92h-5.496c-.12 0-.209 0-.299.031a.59.59 0 0 0-.239.126.378.378 0 0 0-.149.282c-.03.126-.03.22-.03.283v.879h6.063v2.543h-6.063V8.32c0 .125.03.22.06.282.029.063.059.126.119.157.09.094.179.126.329.157h5.794v2.857h-8.064v.063zm20.37 0h-3.584V7.19h-4.032v4.646h-3.585V.126h3.585V4.27h4.032V.126h3.584v11.71zM11.332 0C9.635 5.3 0 14.165 0 18.567c0 5.39 5.06 9.733 11.332 9.763 6.272-.03 11.332-4.372 11.332-9.763 0-4.402-9.635-13.266-11.332-18.567zM5.727 18.777c.212-.18.363-.45.363-.779 0-.539-.424-.988-.94-.988-.514 0-.938.45-.938.988 0 .54.424.989.939.989.09 0 .212-.03.303-.06l2.272 5.66c-2.575-1.018-4.666-3.115-4.666-6.02 0-1.527 4.212-6.888 5.212-8.175.94-1.198 2.03-2.606 3.06-4.103 1.03 1.467 2.121 2.875 3.06 4.103 1 1.317 5.212 6.648 5.212 8.175 0 2.875-2.06 4.971-4.606 5.99l2.273-5.57c.06.03.151.03.242.03.515 0 .94-.45.94-.989 0-.539-.425-.988-.94-.988-.515 0-.94.45-.94.988 0 .33.152.63.425.809l-4.09 4.103-1.394-5.57c.363-.12.636-.51.636-.929 0-.539-.424-.988-.94-.988-.514 0-.938.449-.938.988 0 .42.272.779.636.928L9.544 22.55l-3.817-3.773z" fill="#24242E"/></svg>