<svg width="26" height="33" viewBox="0 0 26 33" fill="none" xmlns="http://www.w3.org/2000/svg">
<path fill-rule="evenodd" clip-rule="evenodd" d="M12.932 0C10.9957 6.04908 0 16.165 0 21.1889C0 27.3405 5.77447 32.2959 12.932 32.3301C20.0896 32.2959 25.8641 27.3405 25.8641 21.1889C25.8641 16.165 14.8684 6.04908 12.932 0ZM6.53517 21.4281C6.77722 21.223 6.95011 20.9155 6.95011 20.5395C6.95011 19.9244 6.46602 19.4117 5.8782 19.4117C5.29038 19.4117 4.80629 19.9244 4.80629 20.5395C4.80629 21.1547 5.29038 21.6673 5.8782 21.6673C5.98193 21.6673 6.12024 21.6331 6.22398 21.599L8.8173 28.0581C5.8782 26.8962 3.49234 24.5039 3.49234 21.1889C3.49234 19.4459 8.29863 13.3285 9.4397 11.8589C10.5116 10.4919 11.7564 8.88565 12.932 7.17687C14.1077 8.85147 15.3525 10.4577 16.4244 11.8589C17.5654 13.3627 22.3717 19.4459 22.3717 21.1889C22.3717 24.4697 20.0205 26.862 17.1159 28.024L19.7093 21.6673C19.7784 21.7015 19.8821 21.7015 19.9859 21.7015C20.5737 21.7015 21.0578 21.1889 21.0578 20.5737C21.0578 19.9585 20.5737 19.4459 19.9859 19.4459C19.3981 19.4459 18.914 19.9585 18.914 20.5737C18.914 20.9496 19.0869 21.2914 19.3981 21.4964L14.7301 26.1785L13.1395 19.8218C13.5544 19.6851 13.8656 19.2409 13.8656 18.7624C13.8656 18.1472 13.3815 17.6346 12.7937 17.6346C12.2059 17.6346 11.7218 18.1472 11.7218 18.7624C11.7218 19.2409 12.033 19.651 12.448 19.8218L10.892 25.7342L6.53517 21.4281Z" fill="#24242E"/>
</svg>
